{"glyphs":{"0":{"ha":767,"x_min":100,"x_max":714,"o":"m 261 497 q 267 570 263 542 q 281 629 271 599 q 311 677 292 660 q 363 710 331 694 q 443 731 394 725 q 560 738 492 738 l 560 729 l 560 715 l 560 699 q 559 673 560 686 q 558 644 558 660 q 558 615 558 629 q 558 590 558 601 l 558 572 l 558 563 l 558 549 q 558 508 558 531 q 557 468 557 486 q 553 414 556 460 l 550 379 q 444 220 517 272 q 264 151 372 168 q 263 190 264 172 q 261 239 263 217 q 261 256 261 249 q 260 261 260 258 l 260 263 l 260 267 l 260 288 l 260 350 l 260 413 l 260 433 l 260 439 q 260 442 260 440 q 260 449 260 444 q 261 458 261 453 q 261 468 261 463 q 261 488 261 479 q 261 497 261 496 m 714 893 l 600 893 l 560 893 q 372 876 449 892 q 235 826 294 861 q 143 730 175 790 q 104 579 111 669 q 101 546 101 560 q 102 520 101 532 q 101 501 103 508 q 101 492 101 499 q 101 472 101 483 q 101 453 101 461 q 100 446 100 449 l 100 443 l 100 442 l 100 433 l 100 413 l 100 350 l 100 288 l 100 267 l 100 260 l 100 256 l 100 254 q 101 250 101 253 q 101 233 101 243 l 103 183 q 106 133 104 157 q 106 127 106 129 q 106 122 106 125 q 106 118 106 119 q 107 -1 107 58 l 114 -1 l 132 0 l 186 0 l 240 1 l 258 1 l 265 1 q 331 7 300 1 q 475 51 411 18 q 581 128 539 85 q 651 226 622 171 q 693 335 679 282 q 711 444 707 389 l 711 450 l 711 464 q 713 504 713 482 q 714 544 713 526 q 714 558 714 553 l 714 564 l 714 565 l 714 572 l 714 590 q 714 615 714 601 q 714 644 714 629 q 714 673 714 660 q 714 697 714 686 l 714 715 l 714 722 l 714 729 l 714 749 l 714 808 l 714 867 l 714 886 l 714 893 "},"1":{"ha":624,"x_min":43,"x_max":571,"o":"m 43 339 l 204 339 l 204 343 l 204 356 l 204 392 l 204 429 l 204 438 q 279 639 215 568 q 374 713 318 682 q 372 444 374 611 q 369 143 371 279 l 368 44 q 368 17 368 28 q 368 7 368 8 l 528 6 q 529 15 528 7 q 529 43 529 26 l 529 46 l 529 47 l 529 49 l 529 50 l 529 51 l 529 53 l 529 54 l 529 56 l 529 57 l 529 58 l 529 60 l 529 61 l 529 63 l 529 64 l 529 65 l 529 67 l 529 68 l 529 69 l 529 71 l 529 72 l 529 74 l 529 75 l 529 76 l 529 78 l 529 79 l 529 81 l 529 82 l 529 83 l 529 85 l 529 86 l 529 88 l 529 89 l 529 90 l 529 92 l 529 93 l 529 94 l 529 96 l 529 97 l 529 99 l 529 100 l 529 101 l 529 104 l 529 106 l 529 107 l 529 108 l 529 110 l 529 113 l 529 114 l 529 115 l 529 118 l 529 119 l 529 122 l 529 124 l 529 126 l 529 128 l 529 131 l 529 132 l 529 135 l 529 138 l 529 139 l 529 142 q 532 443 531 279 q 535 743 533 607 l 536 843 q 536 871 536 860 q 536 878 536 875 q 536 881 536 879 l 571 986 q 439 923 533 969 q 303 854 344 876 q 144 740 197 797 q 69 615 90 681 q 44 447 49 549 l 46 447 l 46 446 l 44 446 q 43 413 44 431 q 43 392 43 400 l 43 385 l 43 383 l 43 356 l 43 343 l 43 339 m 44 447 l 44 446 l 43 446 l 44 447 "},"2":{"ha":683,"x_min":71,"x_max":631,"o":"m 631 0 l 631 160 l 625 160 l 608 160 l 547 160 q 460 160 507 160 q 361 161 414 161 q 271 161 297 161 q 349 288 299 236 q 448 358 400 339 q 538 374 496 376 q 544 374 542 372 q 617 372 581 374 l 617 547 l 617 668 q 617 890 617 692 l 617 896 q 486 896 551 896 q 460 897 471 896 q 218 820 303 876 q 97 647 133 764 l 96 647 l 71 479 l 214 479 l 215 479 q 215 486 215 482 l 233 568 q 456 744 285 736 l 456 732 l 456 724 l 456 710 q 456 690 456 700 q 456 669 456 681 q 456 549 456 615 q 456 524 456 539 q 306 469 372 507 q 199 381 240 432 q 135 275 158 331 q 101 158 111 219 q 94 97 96 128 l 92 0 l 97 0 l 114 0 l 175 0 q 262 0 215 0 q 361 0 308 0 q 460 0 414 0 q 547 0 507 0 l 608 0 l 625 0 l 631 0 "},"3":{"ha":715,"x_min":103,"x_max":663,"o":"m 104 161 l 103 3 l 110 3 q 116 3 114 3 q 121 3 118 3 q 128 3 124 3 l 183 3 q 238 3 213 3 l 239 1 q 260 1 251 1 l 263 1 l 263 3 l 264 3 q 446 72 368 26 q 568 178 524 118 q 635 302 613 239 q 661 436 657 365 l 663 436 l 663 592 l 657 592 l 639 592 q 613 592 628 592 q 582 592 599 592 q 640 736 614 639 l 642 736 l 642 896 l 636 896 l 619 896 q 590 896 606 896 q 558 896 574 896 q 373 896 474 896 q 189 896 272 896 q 157 896 172 896 q 128 896 142 896 l 111 896 l 104 896 l 104 738 l 111 738 l 128 738 q 157 738 142 738 q 189 738 172 738 q 374 738 272 738 q 482 738 457 738 q 343 592 443 621 q 197 592 274 592 q 163 592 178 592 q 135 592 147 592 l 118 592 l 111 592 l 111 438 l 117 438 l 135 438 q 161 438 146 438 q 197 438 176 438 q 386 436 283 438 q 500 436 453 436 q 238 161 453 213 q 220 161 226 161 q 204 161 214 161 q 183 161 194 161 q 129 161 154 161 q 122 161 125 161 q 116 161 118 161 q 111 161 114 161 l 104 161 "},"4":{"ha":694,"x_min":17,"x_max":642,"o":"m 256 894 l 96 894 q 49 894 94 894 q 17 893 4 894 q 56 884 40 892 q 80 867 72 876 q 92 839 88 858 q 97 810 96 819 q 97 774 97 800 q 96 742 96 749 l 96 636 q 96 442 96 615 l 96 435 l 256 435 q 274 435 263 435 q 299 435 285 435 q 436 435 361 435 l 439 435 l 440 435 l 442 435 l 443 435 l 444 435 l 446 435 l 447 435 l 449 435 l 450 435 l 451 435 l 453 435 l 454 435 l 456 435 l 457 435 l 458 435 l 460 435 l 461 435 l 463 435 l 464 435 l 465 435 l 467 435 l 468 435 l 469 435 l 471 435 l 472 435 l 474 435 l 475 435 l 476 435 l 478 435 l 478 410 l 478 403 l 478 53 l 568 -25 l 642 -97 q 640 369 642 231 q 640 394 640 385 l 640 410 l 640 429 l 640 486 l 640 542 l 640 561 l 640 568 l 640 582 l 640 619 l 640 733 l 640 846 l 640 883 l 640 897 l 478 897 l 478 733 l 478 619 q 478 589 478 611 l 476 589 l 475 589 l 474 589 l 472 589 l 471 589 l 469 589 l 468 589 l 467 589 l 465 589 l 464 589 l 463 589 l 461 589 l 460 589 l 458 589 l 457 589 l 456 589 l 453 589 l 451 589 l 450 589 l 449 589 l 447 589 l 446 589 l 444 589 l 443 589 l 442 589 l 440 589 l 438 589 l 436 589 q 300 590 363 589 q 275 590 286 590 q 256 590 264 590 l 256 601 l 256 636 l 256 742 l 256 846 l 256 881 l 256 894 "},"5":{"ha":779,"x_min":15,"x_max":726,"o":"m 83 147 l 83 1 l 92 1 l 111 1 q 143 1 126 1 q 174 1 160 1 q 204 1 188 1 q 236 1 221 1 l 256 1 l 264 1 q 331 7 303 3 q 479 51 413 19 q 589 124 546 82 q 663 219 632 167 q 708 325 693 272 q 725 433 722 378 l 726 433 l 726 589 l 721 589 l 706 589 q 682 589 696 589 q 650 589 668 589 q 482 589 574 589 q 314 590 390 589 q 283 590 297 590 q 258 590 269 590 l 256 590 l 256 601 l 256 636 l 256 735 q 351 735 300 735 q 496 735 431 735 q 521 735 508 735 q 543 735 533 735 l 557 735 l 561 735 l 561 893 l 557 893 l 543 893 q 521 893 533 893 q 496 893 508 893 q 351 894 431 893 l 349 894 l 347 894 l 346 894 l 344 894 l 343 894 l 342 894 l 340 894 l 339 894 l 338 894 l 336 894 l 335 894 l 333 894 l 332 894 l 331 894 l 329 894 l 328 894 l 326 894 l 325 894 l 324 894 l 322 894 l 321 894 l 319 894 l 318 894 l 317 894 l 315 894 l 314 894 l 313 894 l 311 894 l 310 894 l 308 894 l 307 894 l 306 894 l 304 894 l 303 894 l 301 894 l 300 894 l 299 894 l 297 894 l 296 894 l 294 894 l 293 894 l 292 894 l 290 894 l 289 894 l 288 894 l 286 894 l 285 894 l 283 894 l 282 894 l 281 894 l 279 894 l 278 894 l 276 894 l 275 894 l 274 894 l 272 894 l 271 894 l 269 894 l 268 894 l 267 894 l 265 894 l 264 894 l 263 894 l 261 894 l 260 894 l 258 894 l 257 894 l 256 894 l 96 894 l 15 893 q 55 884 39 892 q 78 867 71 876 q 90 839 86 858 q 95 810 94 819 q 96 774 96 800 q 96 742 96 749 l 96 636 q 96 442 96 615 l 96 435 l 238 435 l 242 435 l 258 435 q 282 435 268 435 q 314 435 296 435 q 482 435 390 435 q 564 435 558 435 q 449 228 535 294 q 229 147 364 161 q 203 147 218 147 q 174 147 189 147 q 143 147 160 147 q 111 147 126 147 l 92 147 l 83 147 "},"6":{"ha":742,"x_min":78,"x_max":689,"o":"m 531 308 q 449 195 514 232 q 239 157 385 158 q 239 165 239 158 l 239 172 l 239 178 q 239 196 239 186 q 238 250 238 221 q 238 303 238 279 l 238 304 l 379 306 q 531 308 514 307 m 682 751 l 678 896 l 671 896 q 654 896 664 896 q 600 894 629 894 q 546 893 571 893 q 528 893 536 893 l 521 892 q 456 886 488 892 q 313 840 376 874 q 208 762 250 806 q 138 663 167 718 q 97 554 110 607 q 79 446 83 501 q 79 443 79 444 q 79 433 79 439 q 79 428 79 429 q 79 408 79 418 q 79 386 79 399 q 79 366 79 376 q 78 346 79 356 q 78 333 78 339 q 78 329 78 331 l 78 328 l 78 326 q 78 319 78 325 q 78 311 78 315 q 78 301 78 307 q 79 276 79 290 q 79 247 79 263 q 79 194 79 218 q 79 176 79 183 l 81 169 l 81 168 q 81 163 81 165 q 81 143 81 154 l 81 85 q 82 26 82 53 q 82 7 82 15 q 82 1 82 4 l 82 0 l 201 1 l 240 1 l 240 3 q 428 22 351 6 q 563 74 504 38 q 653 170 622 110 q 689 321 683 231 q 679 460 693 382 l 679 464 l 678 464 l 674 464 l 672 464 q 653 463 664 463 q 585 463 625 463 l 582 463 l 581 463 l 579 463 l 578 463 l 576 463 l 575 463 l 574 463 l 572 463 l 571 463 l 569 463 l 568 463 l 567 463 l 565 463 l 564 463 l 563 463 l 561 463 l 560 463 l 558 463 l 557 463 l 556 463 l 554 463 l 553 463 l 551 463 l 550 463 l 549 463 l 547 463 l 546 463 l 544 463 l 543 461 l 542 461 l 540 461 l 539 461 l 538 461 l 536 461 l 535 461 l 533 461 l 532 461 l 531 461 l 529 461 l 528 461 l 526 461 l 525 461 l 524 461 l 522 461 l 521 461 l 519 461 l 518 461 l 517 461 l 515 461 l 514 461 l 513 461 l 511 461 l 510 461 l 508 461 l 507 461 l 506 461 l 504 461 l 503 461 l 501 461 l 500 461 l 499 461 l 497 461 l 496 461 l 494 461 l 493 461 l 492 461 l 490 461 l 489 461 l 488 461 l 486 461 l 485 461 l 483 461 l 482 461 l 481 461 l 479 461 l 478 461 l 476 461 l 475 461 l 474 461 l 472 461 l 471 461 l 469 461 l 468 461 l 467 461 l 465 461 l 464 461 l 463 461 l 461 461 l 460 461 l 458 461 l 457 461 l 456 461 l 454 461 l 453 461 l 451 461 l 450 461 l 449 461 l 446 461 l 444 461 l 443 461 l 442 461 l 440 461 l 439 461 l 438 461 l 435 461 l 433 461 l 432 461 l 431 461 l 429 461 l 426 461 l 425 461 l 424 461 l 421 461 l 419 460 l 418 460 l 415 460 l 414 460 l 413 460 l 410 460 l 408 460 l 406 460 l 404 460 l 401 460 l 400 460 l 399 460 l 396 460 l 394 460 l 392 460 l 389 460 l 388 460 l 385 460 l 383 460 l 381 460 l 378 460 q 231 458 254 458 q 342 665 257 599 q 563 749 428 732 q 604 750 571 749 q 657 751 633 750 q 675 751 668 751 l 682 751 "},"7":{"ha":885,"x_min":46,"x_max":832,"o":"m 669 894 l 668 894 q 650 894 660 894 q 458 894 563 894 q 267 894 354 894 q 239 894 253 894 q 217 894 225 894 l 217 896 l 65 896 l 331 519 l 400 628 l 313 756 q 458 756 321 756 l 460 756 l 461 756 l 463 756 l 464 756 l 465 756 l 467 756 l 468 756 l 469 756 l 471 756 l 472 756 l 474 756 l 475 756 l 476 756 l 478 756 l 479 756 l 481 756 l 482 756 l 483 756 l 485 756 l 486 756 l 488 756 l 489 756 l 490 756 l 492 756 l 493 756 l 494 756 l 496 756 l 497 756 l 499 756 l 500 756 l 501 756 l 503 756 l 504 756 l 506 756 l 507 756 l 508 756 l 510 756 l 511 756 l 513 756 l 514 756 l 515 756 l 517 756 l 518 756 l 519 756 l 521 756 l 522 756 l 525 756 l 526 756 l 528 756 l 529 756 l 531 756 l 532 756 l 533 756 l 535 756 l 536 756 l 538 756 l 539 756 l 540 756 l 542 756 l 543 756 l 544 756 l 546 756 l 547 756 l 549 756 l 550 756 l 551 756 l 553 756 l 554 756 l 556 756 l 557 756 l 558 756 l 560 756 l 561 756 l 563 756 l 564 756 l 565 756 l 567 756 l 568 756 l 569 756 l 571 756 l 572 756 l 46 0 l 218 1 l 736 756 l 832 894 l 669 894 "},"8":{"ha":771,"x_min":100,"x_max":719,"o":"m 564 435 q 460 238 536 304 q 264 151 383 171 q 263 190 264 171 l 261 239 q 260 256 261 249 q 260 260 260 258 q 260 263 260 261 l 260 267 l 260 288 l 260 350 l 260 413 l 260 433 l 260 435 q 327 435 283 435 q 415 435 371 435 q 564 435 531 435 m 263 590 q 347 701 282 665 q 560 738 413 738 l 560 729 l 560 722 l 560 715 l 560 699 q 560 673 560 686 q 560 644 560 660 q 560 615 560 629 q 560 590 560 601 l 560 589 q 415 589 522 589 q 263 590 378 589 m 719 893 l 600 893 l 560 893 q 372 876 449 892 q 235 826 294 861 q 143 730 175 790 q 104 579 111 669 q 101 546 101 560 q 102 520 101 532 q 101 501 103 508 l 101 500 q 101 492 101 499 q 101 472 101 482 q 100 451 101 461 q 100 444 100 447 l 100 443 l 100 440 l 100 433 l 100 413 l 100 350 l 100 288 l 100 267 l 100 258 l 100 256 l 100 254 q 100 250 100 253 q 101 233 101 243 l 103 183 l 106 133 q 106 118 106 124 q 106 111 106 113 l 107 -1 l 114 -1 l 132 0 l 186 0 l 240 1 l 258 1 l 265 1 q 331 7 300 1 q 476 51 411 18 q 582 128 540 85 q 653 228 624 172 q 697 336 683 283 q 715 444 711 389 l 715 447 q 717 457 717 453 l 715 457 q 717 460 717 458 q 717 464 717 463 q 717 504 717 482 q 718 544 718 526 q 718 558 718 553 q 718 563 718 561 l 718 564 l 718 565 l 718 572 l 718 590 q 719 615 719 601 q 719 644 719 629 q 719 673 719 660 q 719 697 719 686 l 719 715 l 719 722 l 719 729 l 719 749 l 719 808 l 719 867 l 719 886 l 719 893 "},"9":{"ha":771,"x_min":104,"x_max":719,"o":"m 263 590 q 347 701 282 665 q 560 738 413 738 l 560 729 l 560 722 l 560 715 l 560 699 q 560 673 560 686 q 560 644 560 660 q 560 615 560 629 q 560 590 560 601 l 560 589 q 415 589 522 589 q 263 590 378 589 m 106 144 l 107 -1 l 114 -1 l 132 0 l 186 0 l 240 1 l 258 1 l 265 1 q 331 7 300 1 q 476 51 411 18 q 582 128 540 85 q 653 228 624 172 q 697 336 683 283 q 715 444 711 389 l 715 447 q 717 457 717 453 l 715 457 q 717 460 717 458 q 717 464 717 463 q 717 504 717 482 q 718 544 718 526 q 718 558 718 553 q 718 563 718 561 l 718 564 l 718 565 l 718 572 l 718 590 q 719 615 719 601 q 719 644 719 629 q 719 673 719 660 q 719 697 719 686 l 719 715 l 719 722 l 719 729 l 719 749 l 719 808 l 719 867 l 719 886 l 719 893 l 600 893 l 560 893 q 372 876 449 892 q 235 826 294 861 q 143 730 175 790 q 104 579 111 669 q 113 439 99 517 l 113 435 l 114 435 l 118 435 l 119 435 l 139 435 q 169 435 151 435 q 207 435 186 435 q 415 435 301 435 q 564 435 531 435 q 448 227 535 293 q 226 146 361 161 q 185 146 207 146 q 131 146 154 146 q 113 144 119 146 l 106 144 "}," ":{"ha":417,"x_min":0,"x_max":0,"o":""},"!":{"ha":388,"x_min":85,"x_max":336,"o":"m 335 0 l 335 163 l 172 163 l 172 0 l 335 0 m 333 893 l 172 893 l 85 893 q 115 890 101 893 q 138 883 129 888 q 154 872 147 878 q 164 858 161 865 q 169 843 167 851 q 171 827 171 835 q 172 810 171 819 q 172 794 172 801 l 172 726 q 172 600 172 713 l 172 596 l 172 385 l 261 338 l 336 294 q 333 576 336 492 q 333 590 333 585 l 333 600 l 333 611 l 333 646 l 333 679 l 333 690 l 333 694 l 333 703 l 333 726 l 333 794 l 333 863 l 333 885 l 333 893 "},"\"":{"ha":453,"x_min":42,"x_max":401,"o":"m 192 894 l 42 893 q 42 882 42 892 q 42 854 42 871 q 42 769 42 815 q 43 683 43 722 q 43 656 43 667 q 43 644 43 646 l 193 646 q 193 656 193 647 q 193 685 193 668 q 192 770 193 724 q 192 856 192 817 q 192 883 192 872 q 192 892 192 888 q 192 894 192 893 m 400 894 l 250 893 q 250 882 250 892 q 250 854 250 871 q 250 769 250 815 q 251 683 250 722 q 251 656 251 667 q 251 644 251 646 l 401 646 q 401 656 401 647 q 401 685 401 668 q 400 770 400 724 q 400 856 400 817 q 400 883 400 872 l 400 894 "},"#":{"ha":949,"x_min":122,"x_max":896,"o":"m 622 510 q 622 344 622 443 q 508 344 585 344 q 361 344 383 344 q 361 414 361 403 q 361 436 361 426 l 361 450 l 361 467 l 361 508 q 510 508 418 508 q 622 510 594 508 m 122 635 l 124 507 l 132 507 q 144 507 138 507 q 157 507 150 507 q 219 508 208 508 l 219 343 q 156 343 182 343 q 142 343 149 343 q 132 343 136 343 l 122 343 l 124 219 l 132 219 q 144 219 138 219 q 157 219 150 219 q 219 219 196 219 q 218 -1 218 110 l 363 -1 q 363 221 363 4 q 510 221 417 221 q 593 221 539 221 q 622 222 603 221 l 622 -67 l 700 -156 l 763 -237 q 763 222 763 -146 q 766 222 764 222 q 771 222 768 222 q 775 222 774 222 q 863 222 826 222 q 873 222 868 222 q 881 222 878 222 q 888 222 883 222 l 896 222 l 896 346 l 886 346 q 879 346 882 346 q 872 346 876 346 q 863 346 868 346 q 775 346 826 346 q 761 346 772 346 l 761 361 l 761 426 l 761 490 l 761 510 l 764 510 l 765 510 l 767 510 l 768 510 l 769 510 l 771 510 l 772 510 l 774 510 l 775 510 q 863 510 826 510 q 873 510 868 510 q 881 510 878 510 q 888 510 883 510 l 896 510 l 896 638 l 886 638 q 880 638 882 638 q 873 638 878 638 q 863 638 868 638 q 775 638 826 638 q 761 636 763 636 l 761 707 l 761 836 l 761 879 l 761 896 l 622 896 l 622 707 l 622 636 q 568 636 611 636 q 510 636 544 636 q 361 636 399 636 l 361 640 l 361 743 l 361 846 l 361 881 l 361 893 l 221 893 l 146 894 q 173 888 161 893 q 192 876 185 883 q 206 860 200 869 q 214 841 211 851 q 219 818 217 831 q 221 793 221 806 q 221 768 221 781 q 221 743 221 756 l 221 635 q 156 635 188 635 q 142 635 149 635 q 132 635 136 635 l 122 635 "},"$":{"ha":779,"x_min":83,"x_max":726,"o":"m 469 435 q 564 435 554 435 q 468 244 539 314 q 469 435 468 340 m 344 700 q 344 589 344 644 q 263 590 342 589 q 344 700 282 665 m 83 147 l 83 1 l 92 1 l 111 1 q 143 1 126 1 q 174 1 160 1 q 204 1 188 1 q 236 1 221 1 l 256 1 l 264 1 q 331 7 303 3 q 340 8 336 7 l 340 -62 l 467 -62 l 467 44 q 611 149 553 82 q 695 286 669 215 q 725 433 721 357 l 726 589 l 719 589 l 700 589 q 669 589 686 589 q 629 589 651 589 q 469 589 533 589 l 471 733 q 601 736 526 739 l 603 892 q 472 889 528 892 q 472 954 472 921 l 346 954 q 346 871 346 913 q 179 783 238 847 q 101 594 121 718 q 100 579 100 589 l 100 435 l 107 435 l 126 435 q 157 435 139 435 q 197 435 175 435 q 343 435 326 435 q 342 171 342 303 q 229 147 292 154 q 203 147 218 147 q 174 147 189 147 q 143 147 160 147 q 111 147 126 147 l 92 147 l 83 147 "},"%":{"ha":925,"x_min":51,"x_max":874,"o":"m 356 741 q 375 696 375 722 q 356 651 375 669 q 312 633 338 633 q 267 651 286 633 q 249 696 249 669 q 267 741 249 722 q 312 760 286 760 q 347 750 338 760 q 356 741 356 741 m 213 794 q 172 697 172 754 q 213 598 172 639 q 312 557 254 557 q 410 598 369 557 q 450 697 450 639 q 410 794 450 754 q 312 835 369 835 q 234 815 254 835 q 213 794 213 794 m 715 284 q 733 240 733 265 q 715 195 733 214 q 670 176 696 176 q 626 195 644 176 q 607 240 607 214 q 626 284 607 265 q 670 303 644 303 q 705 293 696 303 q 715 284 715 284 m 572 338 q 532 240 532 297 q 572 142 532 182 q 670 101 613 101 q 769 142 728 101 q 810 240 810 182 q 769 338 810 297 q 670 379 728 379 q 592 359 613 379 q 572 338 572 338 m 51 -8 l 188 -10 l 874 907 l 746 907 l 51 -8 "},"&":{"ha":918,"x_min":46,"x_max":865,"o":"m 454 346 l 600 138 q 471 138 506 138 q 374 138 419 138 q 311 138 329 138 l 454 346 m 447 576 l 318 756 q 458 756 397 756 l 460 756 l 461 756 l 463 756 l 464 756 l 465 756 l 467 756 l 468 756 l 469 756 l 471 756 l 472 756 l 474 756 l 475 756 l 476 756 l 478 756 l 479 756 l 481 756 l 482 756 l 483 756 l 485 756 l 486 756 l 488 756 l 489 756 l 490 756 l 492 756 l 493 756 l 494 756 l 496 756 l 497 756 l 499 756 l 500 756 l 501 756 l 503 756 l 504 756 l 506 756 l 507 756 l 508 756 l 510 756 l 511 756 l 513 756 l 514 756 l 515 756 l 517 756 l 518 756 l 519 756 l 521 756 l 522 756 l 525 756 l 526 756 l 528 756 l 529 756 l 531 756 l 532 756 l 533 756 l 535 756 l 536 756 l 538 756 l 539 756 l 540 756 l 542 756 l 543 756 l 544 756 l 546 756 l 547 756 l 549 756 l 550 756 l 551 756 l 553 756 l 554 756 l 556 756 l 557 756 l 558 756 l 560 756 l 561 756 l 563 756 l 564 756 l 565 756 l 567 756 l 568 756 l 569 756 l 571 756 l 572 756 l 447 576 m 669 894 l 668 894 q 650 894 660 894 q 458 894 563 894 q 267 894 354 894 q 239 894 253 894 q 217 894 225 894 l 217 896 l 65 896 l 369 465 l 46 0 l 151 1 l 151 0 l 158 0 l 176 0 l 193 0 l 199 0 l 217 0 l 244 0 q 340 0 289 0 q 450 0 392 0 q 559 -1 508 0 q 654 -1 610 -1 l 661 -1 l 722 -1 l 724 -1 l 742 -1 l 747 -1 l 747 0 l 865 1 l 533 460 l 736 756 l 832 894 l 669 894 "},"'":{"ha":232,"x_min":46,"x_max":179,"o":"m 179 974 l 46 974 l 46 636 l 179 636 l 179 974 "},"(":{"ha":1150,"x_min":24,"x_max":1099,"o":"m 678 757 l 597 614 l 858 142 q 272 144 565 143 l 643 801 l 561 949 l 24 1 l 190 0 l 192 1 l 936 0 l 1001 0 l 1099 0 l 678 757 "},")":{"ha":1168,"x_min":25,"x_max":1115,"o":"m 454 192 l 536 336 l 269 815 q 867 819 568 818 l 489 146 l 572 -3 l 1115 960 l 946 960 l 189 958 l 25 958 l 454 192 "},"*":{"ha":460,"x_min":135,"x_max":408,"o":"m 386 826 l 293 799 l 217 858 l 215 761 l 135 707 l 226 676 l 253 583 l 311 661 l 408 657 l 353 736 l 386 826 "},"+":{"ha":785,"x_min":43,"x_max":732,"o":"m 43 636 l 43 539 l 51 539 l 72 539 q 110 539 90 539 q 150 539 131 539 q 311 539 221 539 q 311 457 311 497 l 311 450 l 311 135 l 401 64 l 475 0 q 474 421 475 294 q 474 443 474 433 l 474 457 l 474 474 l 474 525 l 474 540 q 533 540 475 540 q 625 540 561 540 q 665 540 644 540 q 703 540 685 540 l 725 540 l 732 540 l 732 638 l 725 638 l 703 638 q 665 638 685 638 q 625 638 644 638 q 474 638 526 638 l 474 646 l 474 747 l 474 850 l 474 883 l 474 896 l 311 896 l 225 897 q 256 892 242 896 q 278 881 269 888 q 294 865 288 874 q 304 844 301 856 q 309 822 307 833 q 311 797 311 810 q 312 772 311 785 q 311 747 313 760 l 311 646 q 311 642 311 644 q 311 636 311 639 q 150 636 282 636 q 110 636 131 636 q 72 636 90 636 l 50 636 l 43 636 "},",":{"ha":372,"x_min":54,"x_max":304,"o":"m 58 -172 q 54 -176 54 -175 q 82 -174 53 -182 q 225 -99 175 -147 q 304 190 358 31 q 293 219 301 206 q 238 261 274 251 q 171 252 203 271 q 129 197 139 233 q 139 129 119 161 q 203 86 160 92 q 58 -172 219 -62 "},"-":{"ha":779,"x_min":38,"x_max":726,"o":"m 38 461 l 38 364 l 44 364 l 67 364 q 105 364 85 364 q 144 364 125 364 q 382 364 253 364 q 618 364 511 364 q 659 364 639 364 q 697 364 679 364 l 718 364 l 726 364 l 726 461 l 718 461 l 697 461 q 659 461 679 461 q 618 461 639 461 q 382 461 511 461 q 144 461 253 461 q 105 461 125 461 q 67 461 85 461 l 44 461 l 38 461 "},".":{"ha":318,"x_min":103,"x_max":265,"o":"m 265 1 l 265 164 l 103 164 l 103 1 l 265 1 "},"/":{"ha":590,"x_min":4,"x_max":538,"o":"m 4 -169 l 149 -172 l 538 958 l 393 960 l 4 -169 "},":":{"ha":321,"x_min":103,"x_max":268,"o":"m 265 1 l 265 164 l 103 164 l 103 1 l 265 1 m 268 419 l 268 582 l 106 582 l 106 419 l 268 419 "},";":{"ha":372,"x_min":54,"x_max":304,"o":"m 58 -172 q 54 -176 54 -175 q 82 -174 53 -182 q 225 -99 175 -147 q 304 190 358 31 q 293 219 301 206 q 238 261 274 251 q 171 252 203 271 q 129 197 139 233 q 139 129 119 161 q 203 86 160 92 q 58 -172 219 -62 m 290 417 l 290 579 l 126 579 l 126 417 l 290 417 "},"<":{"ha":799,"x_min":71,"x_max":747,"o":"m 175 515 l 71 460 l 736 71 l 739 189 l 175 515 m 207 540 l 308 482 l 746 717 l 747 831 l 207 540 "},"=":{"ha":786,"x_min":43,"x_max":735,"o":"m 44 629 l 44 532 l 53 532 l 75 532 q 112 532 92 532 q 153 532 132 532 q 390 532 260 532 q 626 532 519 532 q 667 532 647 532 q 704 532 688 532 l 726 532 l 735 532 l 735 629 l 726 629 l 704 629 q 667 629 688 629 q 626 629 647 629 q 389 629 518 629 q 153 629 260 629 q 112 629 132 629 q 75 629 92 629 l 53 629 l 44 629 m 43 349 l 43 251 l 51 251 l 72 251 q 110 251 90 251 q 150 251 131 251 q 388 251 258 251 q 625 251 517 251 q 665 251 644 251 q 703 251 685 251 l 725 251 l 732 251 l 732 349 l 725 349 l 703 349 q 665 349 685 349 q 625 349 644 349 q 388 349 517 349 q 150 349 258 349 q 110 349 131 349 q 72 349 90 349 l 50 349 l 43 349 "},">":{"ha":817,"x_min":94,"x_max":764,"o":"m 661 415 l 764 474 l 94 849 l 94 731 l 661 415 m 629 392 l 528 447 l 97 206 l 99 92 l 629 392 "},"?":{"ha":578,"x_min":75,"x_max":525,"o":"m 99 496 l 100 494 q 101 483 100 488 q 181 299 119 350 q 389 243 243 247 l 390 349 q 263 387 301 351 q 215 488 225 422 q 313 489 238 488 q 460 489 393 489 q 507 489 488 489 q 513 489 511 489 q 517 489 515 489 q 521 489 518 489 l 525 489 l 525 604 q 506 704 522 656 q 458 799 489 753 q 372 876 426 844 q 244 919 317 908 q 208 922 228 922 l 208 924 l 203 924 l 188 924 l 142 924 l 96 924 l 81 924 l 75 924 l 75 815 l 81 815 l 96 815 l 142 815 l 174 815 q 328 756 268 806 q 410 603 389 707 q 311 603 389 603 q 165 603 232 603 q 117 603 136 603 q 109 603 113 603 q 103 603 106 603 l 99 603 l 99 496 m 288 138 q 264 80 264 114 q 288 22 264 46 q 346 -1 313 -1 q 403 22 379 -1 q 428 80 428 46 q 403 138 428 114 q 346 161 379 161 q 300 149 313 161 q 288 138 288 138 "},"@":{"ha":1200,"x_min":85,"x_max":1147,"o":"m 660 181 q 657 179 658 179 q 526 178 578 149 q 469 264 481 204 q 493 390 456 331 q 631 490 536 461 q 669 494 647 494 q 703 492 683 494 l 683 354 q 660 181 669 249 m 844 599 q 753 611 799 606 q 674 621 703 619 q 594 611 631 622 q 385 456 453 568 q 344 240 322 354 q 464 68 368 124 q 703 61 568 8 q 719 71 713 65 l 724 69 q 749 63 736 65 q 778 54 764 57 q 810 50 794 50 q 984 83 908 43 q 1103 200 1060 122 q 1147 352 1140 267 q 1126 522 1153 438 q 1044 686 1100 613 q 910 807 989 760 q 474 853 725 918 q 165 622 272 800 q 85 265 69 463 q 222 -68 100 67 q 578 -225 360 -219 q 757 -218 690 -228 q 936 -153 863 -201 l 869 -46 q 738 -93 782 -86 q 581 -99 682 -101 q 317 17 417 -94 q 210 276 222 119 q 274 557 199 432 q 506 731 354 690 q 844 699 706 783 q 1006 486 964 628 q 993 261 1044 356 q 818 176 942 168 l 804 178 l 788 182 q 808 336 793 224 l 808 339 l 810 340 l 810 342 l 810 343 l 810 344 l 810 346 l 810 347 l 811 349 l 811 350 l 811 351 l 811 353 l 811 354 l 811 356 l 811 357 l 811 358 l 813 360 l 813 361 l 813 363 l 813 364 l 813 365 l 813 367 l 813 368 l 814 369 l 814 371 l 814 372 l 814 374 l 814 375 l 814 376 l 814 378 l 814 379 l 815 381 l 815 382 l 815 383 l 815 385 l 815 386 l 815 388 l 815 389 l 817 389 l 817 390 l 817 392 l 817 393 l 817 394 l 817 396 l 817 397 l 817 399 l 818 400 l 818 401 l 818 403 l 818 404 l 818 406 l 818 407 l 818 408 l 819 410 l 819 411 l 819 413 l 819 414 l 819 415 l 819 417 l 819 418 l 821 419 l 821 421 l 821 422 l 821 424 l 821 425 l 821 426 l 821 428 l 821 429 l 822 431 l 822 432 l 822 433 l 822 435 l 822 436 l 822 438 l 822 439 l 824 440 l 824 442 l 824 443 l 824 444 l 824 446 l 824 447 l 824 449 l 825 450 l 825 451 l 825 453 l 825 454 l 825 456 l 825 457 l 825 458 l 825 460 l 826 460 l 826 461 l 826 463 l 826 464 l 826 465 l 826 467 l 826 468 l 828 469 l 828 471 l 828 472 l 828 474 l 828 475 l 828 476 l 828 478 l 828 479 l 829 481 l 829 482 l 829 483 l 829 485 l 829 486 l 829 488 l 829 489 l 831 492 l 831 493 l 831 494 l 831 496 l 831 497 l 831 499 l 832 501 l 832 503 l 832 504 l 832 506 l 832 507 l 832 510 l 833 511 l 833 513 l 833 515 l 833 517 q 842 576 839 551 q 844 593 843 586 q 844 599 844 597 "},"A":{"ha":810,"x_min":94,"x_max":758,"o":"m 597 772 q 596 757 597 767 l 596 604 l 596 603 l 596 601 l 596 600 l 596 599 l 596 597 l 596 596 l 596 594 l 596 593 l 596 592 l 596 590 l 596 589 l 596 588 l 596 586 l 596 585 l 596 583 l 596 582 l 596 581 l 596 579 l 596 578 l 596 576 l 596 575 l 596 572 l 596 571 l 594 569 l 594 568 l 594 567 l 594 565 l 594 564 l 594 563 l 594 561 l 594 560 l 594 557 l 594 556 l 594 554 l 594 553 l 594 551 l 594 550 l 594 549 l 594 546 l 594 544 l 594 543 l 594 542 l 594 540 l 594 538 l 594 536 l 594 535 l 594 533 l 594 532 l 594 529 l 594 528 l 594 526 l 594 525 l 594 522 l 594 521 l 594 519 l 594 518 l 594 515 l 594 514 l 594 513 l 594 510 l 594 508 l 594 507 l 261 468 q 333 632 275 568 q 592 769 401 706 q 597 772 594 771 m 94 1 l 256 1 l 256 6 l 256 18 l 256 63 l 256 197 l 256 307 l 593 346 q 592 142 593 250 q 592 40 592 82 q 592 11 592 24 q 590 1 590 4 l 751 0 q 751 11 751 3 q 751 39 751 22 q 753 140 751 81 q 754 448 753 281 q 757 756 756 615 q 757 857 757 815 q 758 885 758 874 q 758 893 758 889 q 758 896 758 894 q 608 896 683 896 l 625 978 q 493 915 588 963 q 357 846 399 868 q 199 733 251 790 q 116 594 136 664 q 94 394 96 524 l 94 392 l 94 389 l 94 376 l 94 332 l 94 197 l 94 63 l 94 18 l 94 6 l 94 1 "},"B":{"ha":779,"x_min":15,"x_max":726,"o":"m 256 150 l 256 253 l 256 286 l 256 299 l 256 325 l 256 392 l 256 435 l 258 435 q 282 435 268 435 q 314 435 296 435 q 482 435 390 435 q 564 435 558 435 q 457 235 536 301 q 256 150 378 168 m 256 894 l 96 894 l 15 893 q 49 881 35 890 q 73 851 64 871 q 87 813 82 831 q 94 763 92 796 q 96 710 96 731 q 96 652 96 690 q 96 597 96 614 l 96 392 q 96 15 96 353 l 96 1 l 256 1 q 331 7 300 1 q 479 51 413 19 q 589 124 546 82 q 663 219 632 167 q 708 325 693 272 q 725 433 722 378 l 726 433 l 726 589 l 721 589 l 706 589 q 682 589 696 589 q 650 589 668 589 l 647 589 l 646 589 q 704 733 676 636 l 704 735 l 706 735 l 706 893 l 700 893 l 682 893 q 651 893 668 893 q 618 893 635 893 q 424 894 529 893 q 256 894 303 894 m 256 735 q 424 735 321 735 q 544 735 500 735 q 469 625 518 657 q 354 590 421 593 q 314 590 343 590 q 306 590 310 590 q 260 593 288 590 q 256 593 258 593 l 256 597 l 256 735 "},"C":{"ha":763,"x_min":-1,"x_max":711,"o":"m 129 894 l 88 894 l -1 894 q 24 890 13 893 q 44 883 36 886 q 60 872 53 879 q 71 859 67 864 q 78 842 75 854 q 83 826 82 831 q 86 806 85 821 q 88 788 88 792 q 88 767 88 783 q 88 747 88 750 l 88 646 q 88 460 88 626 l 88 453 q 88 424 86 435 q 123 273 94 342 q 192 158 151 204 q 284 78 232 113 q 388 26 336 44 q 496 1 440 8 l 497 1 l 499 1 l 506 1 q 516 1 510 1 q 529 1 522 1 l 603 1 l 676 1 q 690 1 685 1 q 701 0 696 1 l 708 0 l 710 0 l 711 156 l 708 156 l 701 156 q 691 156 697 156 q 678 156 685 156 q 603 156 643 156 q 531 157 564 157 q 514 157 524 157 q 383 205 433 175 q 304 283 332 235 q 265 384 276 331 q 249 521 253 438 q 249 526 249 524 l 249 578 l 249 594 l 249 600 l 249 613 l 249 646 l 249 735 q 413 735 331 735 q 607 735 518 735 q 640 735 624 735 q 671 735 657 735 l 689 735 l 696 735 l 696 894 l 689 894 l 671 894 q 640 894 657 894 q 607 894 624 894 l 413 894 q 218 894 307 894 q 185 894 201 894 q 154 894 168 894 l 136 894 l 129 894 "},"D":{"ha":779,"x_min":15,"x_max":726,"o":"m 579 431 q 576 407 578 421 q 514 272 568 342 q 256 140 426 161 l 256 150 l 256 253 l 256 286 l 256 299 l 256 325 l 256 392 l 256 597 l 256 735 q 424 735 321 735 q 578 735 521 735 q 579 517 579 589 q 579 447 579 453 q 579 431 581 443 m 725 896 q 647 893 686 894 q 618 893 636 893 q 424 894 529 893 q 256 894 303 894 l 96 894 l 15 893 q 49 881 35 890 q 73 851 64 871 q 87 813 82 831 q 94 763 92 796 q 96 710 96 731 q 96 652 96 690 q 96 597 96 614 l 96 392 q 96 15 96 353 l 96 1 l 256 1 q 331 7 300 1 q 510 65 432 22 q 635 169 589 108 q 703 295 681 229 q 726 429 726 361 l 726 433 l 726 449 q 726 501 726 471 q 726 660 726 574 q 725 819 725 747 q 725 872 725 850 q 725 888 725 881 l 725 896 "},"E":{"ha":689,"x_min":0,"x_max":638,"o":"m 189 894 l 89 894 l 0 893 q 28 890 15 893 q 49 879 40 886 q 65 867 58 872 q 76 850 72 863 q 83 833 81 838 q 86 811 85 828 q 88 791 88 794 q 89 768 89 788 q 89 747 89 749 l 89 646 q 89 458 89 626 q 90 431 89 444 q 90 422 90 426 q 126 272 97 340 q 194 158 154 204 q 285 78 233 113 q 390 26 338 44 q 497 1 442 8 l 499 1 l 503 1 q 510 1 506 1 q 518 1 514 1 l 519 1 l 521 1 l 522 1 l 524 1 l 525 1 l 526 1 l 528 1 l 529 1 l 531 1 l 532 1 l 533 1 l 535 1 l 536 1 l 538 1 l 539 1 l 540 1 l 542 1 l 543 1 l 544 1 l 546 1 l 547 1 l 549 1 l 550 1 l 551 1 l 553 1 l 556 1 l 557 1 l 558 1 l 561 1 l 563 1 l 564 1 l 567 1 l 615 1 q 624 1 619 1 q 631 1 628 1 l 635 1 l 638 1 l 638 149 l 636 149 l 631 149 q 624 149 628 149 q 615 149 621 149 q 567 149 593 149 q 554 149 560 149 q 340 239 404 175 q 258 422 275 303 q 521 419 389 421 l 522 579 l 249 582 l 249 593 l 249 600 l 249 613 l 249 646 l 249 747 l 249 763 l 258 763 q 335 763 296 763 q 410 763 375 763 q 486 763 447 763 q 563 763 525 763 l 613 763 l 626 763 l 632 763 l 632 894 l 626 894 l 613 894 l 563 894 q 486 894 525 894 q 410 894 447 894 q 335 894 375 894 q 258 894 296 894 l 208 894 l 194 894 l 189 894 "},"F":{"ha":683,"x_min":15,"x_max":632,"o":"m 194 894 l 189 894 l 96 894 l 15 893 q 49 881 35 890 q 73 851 64 871 q 87 813 82 831 q 94 763 92 796 q 96 710 96 731 q 96 652 96 690 q 96 597 96 614 l 96 392 q 96 15 96 353 l 96 1 l 256 1 q 256 150 256 94 l 256 253 l 256 286 l 256 299 l 256 325 l 256 392 l 256 422 q 521 419 388 421 l 522 579 q 256 582 389 581 l 256 597 l 256 763 l 258 763 q 335 763 296 763 q 410 763 375 763 q 486 763 447 763 q 563 763 525 763 l 613 763 l 626 763 l 632 763 l 632 894 l 626 894 l 613 894 l 563 894 q 486 894 525 894 q 410 894 447 894 l 258 894 l 256 894 l 208 894 l 194 894 "},"G":{"ha":779,"x_min":15,"x_max":726,"o":"m 407 590 l 407 435 l 410 435 l 419 435 q 435 435 426 435 q 457 435 444 435 l 564 435 q 457 235 536 301 q 256 150 378 168 l 256 253 l 256 286 l 256 299 l 256 325 l 256 392 l 256 597 l 256 735 q 424 735 321 735 q 618 735 529 735 q 651 735 635 735 q 682 735 667 735 l 700 735 l 706 735 l 706 893 l 700 893 l 682 893 q 651 893 668 893 q 618 893 635 893 q 424 894 529 893 q 256 894 303 894 l 96 894 l 15 893 q 49 881 35 890 q 73 851 64 871 q 87 813 82 831 q 94 763 92 796 q 96 710 96 731 q 96 652 96 690 q 96 597 96 614 l 96 392 q 96 15 96 353 l 96 1 l 256 1 q 331 7 300 1 q 479 51 413 19 q 589 124 546 82 q 663 219 632 167 q 708 325 693 272 q 725 433 722 378 l 726 433 l 726 589 l 724 589 l 713 589 q 698 589 707 589 q 676 589 689 589 q 567 589 626 589 q 457 590 507 589 q 437 590 446 590 q 421 590 428 590 l 411 590 l 407 590 "},"H":{"ha":872,"x_min":-1,"x_max":819,"o":"m 819 896 l 660 896 l 660 885 l 660 857 q 660 808 660 835 q 660 756 660 782 q 660 515 660 667 l 247 560 l 247 571 l 247 588 l 247 594 l 247 607 l 247 642 l 247 744 l 247 847 l 247 882 l 247 894 l 85 894 l -1 894 q 29 889 15 893 q 52 878 43 885 q 68 862 61 871 q 78 842 75 853 q 83 819 81 831 q 85 794 85 807 q 85 769 85 782 q 85 744 86 757 l 82 0 l 250 0 q 249 407 250 110 l 660 363 q 658 136 660 271 q 658 35 658 76 q 659 -71 658 25 q 660 -171 660 -167 q 667 -168 660 -172 q 685 -156 674 -164 q 710 -137 696 -149 q 741 -111 725 -126 q 772 -79 757 -96 q 799 -40 786 -62 q 819 6 811 -18 q 819 85 819 39 q 819 258 819 132 q 819 446 819 385 l 819 754 q 819 808 819 782 q 819 857 819 833 l 819 885 l 819 896 "},"I":{"ha":301,"x_min":-1,"x_max":249,"o":"m 247 894 l 85 894 l -1 894 q 29 890 15 894 q 52 878 43 885 q 68 862 61 871 q 78 842 75 853 q 83 820 81 832 q 85 796 85 808 q 85 771 85 783 q 85 746 86 758 l 85 643 q 85 456 85 624 l 85 449 l 86 133 l 175 63 l 249 -3 q 247 419 249 293 q 247 442 247 432 l 247 456 l 247 472 l 247 524 l 247 574 l 247 590 l 247 597 l 247 610 l 247 643 l 247 746 l 247 849 l 247 882 l 247 894 "},"J":{"ha":708,"x_min":4,"x_max":657,"o":"m 181 894 l 179 764 l 185 764 l 196 764 q 217 764 206 764 q 240 764 228 764 q 372 764 300 764 q 433 764 428 764 l 433 736 l 433 628 l 433 592 l 433 578 l 433 571 l 433 554 l 433 499 q 433 422 433 471 q 431 408 432 415 q 369 272 422 342 q 104 140 279 158 l 101 140 q 83 140 93 140 q 63 140 74 140 q 41 140 51 140 q 22 140 31 140 l 10 140 l 6 140 l 4 3 l 10 3 l 22 3 q 40 3 31 3 q 61 3 50 3 q 82 3 72 3 q 101 3 92 3 l 110 3 l 114 3 l 118 3 q 186 7 157 3 q 366 65 288 22 q 490 165 444 107 q 558 288 535 224 q 582 419 581 353 l 582 426 l 582 628 l 582 736 q 582 771 582 744 q 583 808 582 797 q 587 838 583 818 q 598 866 590 857 q 621 883 606 875 q 657 894 636 892 l 582 894 l 433 894 q 372 894 396 894 q 240 894 300 894 q 217 894 229 894 q 196 894 206 894 l 185 894 l 181 894 "},"K":{"ha":976,"x_min":-4,"x_max":925,"o":"m 247 896 l 85 896 l -4 896 q 28 890 14 894 q 51 879 42 886 q 67 863 60 872 q 77 843 74 854 q 82 820 81 832 q 84 796 83 808 q 85 771 85 783 q 85 746 85 758 l 81 1 l 250 0 q 249 389 250 57 l 251 389 l 253 389 l 254 389 l 256 389 l 257 389 l 258 389 l 260 389 l 261 389 l 264 389 l 265 389 l 267 389 l 268 389 l 269 389 l 271 389 l 274 389 l 275 389 l 276 389 l 278 389 l 279 389 l 281 389 l 283 389 l 285 389 l 286 389 l 289 389 l 290 389 l 292 388 l 294 388 l 296 388 l 299 388 l 300 388 l 301 388 q 309 388 304 388 q 315 388 314 388 q 322 388 317 388 l 326 388 q 333 381 329 385 q 411 306 350 367 q 510 207 499 219 q 647 76 561 153 q 814 -56 722 8 q 864 -89 824 -62 q 925 -121 890 -106 l 924 44 l 826 121 q 795 147 815 131 q 760 178 775 164 q 732 203 744 192 q 621 310 682 247 l 599 333 q 576 357 586 347 q 529 404 550 383 q 451 479 488 446 l 704 899 l 538 899 l 311 539 q 306 539 310 539 q 247 540 278 540 l 247 572 l 247 589 l 247 596 l 247 608 l 247 643 l 247 746 l 247 849 l 247 882 l 247 896 "},"L":{"ha":575,"x_min":15,"x_max":522,"o":"m 256 894 l 96 894 l 15 893 q 49 881 35 890 q 73 851 64 871 q 87 813 82 831 q 94 763 92 796 q 96 710 96 731 q 96 652 96 690 q 96 597 96 614 l 96 392 q 96 15 96 353 l 96 1 l 157 1 l 161 1 l 174 1 q 193 1 182 1 q 214 1 204 1 l 217 1 l 218 1 l 219 1 l 221 1 l 222 1 l 224 1 l 225 1 l 226 1 l 228 1 l 229 1 l 231 1 l 232 1 l 233 1 l 235 1 l 236 1 l 238 1 l 239 1 l 240 1 l 242 1 l 243 1 l 244 1 l 246 1 l 247 1 l 249 1 l 250 1 l 251 1 l 253 1 l 254 1 l 256 1 l 257 1 l 258 1 l 260 1 l 261 1 l 263 1 l 264 1 l 265 1 l 267 1 l 268 1 l 269 1 l 271 1 l 272 1 l 274 1 l 275 1 l 276 1 l 278 1 l 279 1 l 281 1 l 282 1 l 283 1 l 285 1 l 286 1 l 288 1 l 289 1 l 290 1 l 292 1 l 293 1 l 294 1 l 296 1 l 297 1 l 299 1 l 300 1 l 301 1 l 303 1 l 304 1 l 307 1 l 308 1 l 310 1 l 311 1 l 314 1 l 315 1 l 317 1 l 319 1 l 321 1 l 322 1 l 325 1 l 326 1 l 329 1 l 331 1 l 333 1 l 336 1 l 338 1 l 340 1 l 465 1 q 487 1 476 1 q 507 1 497 1 l 518 1 l 522 1 l 522 160 l 518 160 l 507 160 q 487 160 497 160 q 465 160 476 160 q 340 161 408 160 q 256 161 283 161 l 256 253 l 256 286 l 256 299 l 256 325 l 256 392 l 256 597 l 256 801 l 256 868 l 256 894 "},"M":{"ha":986,"x_min":22,"x_max":935,"o":"m 392 303 l 565 303 l 565 306 l 565 315 q 565 329 565 322 q 565 342 565 336 q 565 356 565 349 q 565 371 565 364 l 565 379 l 565 383 q 588 536 569 476 q 643 636 606 596 q 738 711 682 679 q 735 442 736 610 q 733 142 733 278 q 732 42 732 83 l 732 14 q 732 4 732 6 l 892 3 q 892 13 892 4 q 892 40 892 24 q 893 140 893 82 q 896 440 894 276 q 899 742 897 604 q 899 840 899 800 q 899 868 899 857 q 900 875 900 872 l 900 878 l 899 878 l 935 983 q 802 921 897 968 q 667 851 707 874 q 508 738 561 796 q 475 697 489 718 q 447 731 463 714 q 290 844 394 789 q 154 914 249 867 q 22 976 60 961 l 57 874 q 57 869 57 872 q 57 842 57 858 q 56 743 57 801 q 53 442 54 607 q 51 142 51 278 q 50 42 50 83 q 50 14 50 25 q 50 4 50 6 l 210 3 q 210 13 210 4 q 210 40 210 24 q 211 140 211 82 q 214 440 213 276 q 215 706 215 606 q 313 629 272 674 q 370 523 353 586 q 392 358 388 460 q 392 342 392 349 q 392 329 392 336 q 392 315 392 322 l 392 306 l 392 303 "},"N":{"ha":713,"x_min":53,"x_max":660,"o":"m 54 0 l 215 0 l 215 147 q 215 249 215 217 q 215 436 215 268 l 215 442 l 214 675 q 253 660 251 661 q 407 569 354 619 q 463 485 440 538 q 492 374 485 432 l 493 358 q 493 0 493 179 l 658 1 l 658 10 q 658 33 658 19 q 658 102 658 64 q 657 172 657 140 q 657 196 657 186 l 657 211 l 657 229 q 657 258 657 243 q 657 285 657 272 q 657 313 657 299 q 657 342 657 328 l 657 360 l 657 376 q 657 390 657 383 q 657 404 657 397 q 657 442 657 421 q 657 485 657 463 q 657 528 657 508 q 657 567 657 549 q 657 581 657 574 q 657 594 657 588 l 657 604 l 657 611 l 657 631 q 657 659 657 644 q 657 690 657 674 q 657 706 657 699 q 660 828 657 750 l 582 894 l 494 768 l 494 703 q 424 751 465 728 q 239 843 339 800 q 232 847 236 844 q 197 865 217 856 q 164 881 176 874 q 139 894 154 886 l 53 763 l 54 763 q 54 471 53 501 q 54 449 54 458 l 54 435 l 54 418 q 54 393 54 406 q 54 368 54 381 q 54 343 54 356 q 54 318 54 331 l 54 301 l 54 294 l 54 282 q 54 267 54 275 q 54 249 54 258 q 54 147 54 203 q 54 46 54 92 l 54 13 l 54 0 "},"O":{"ha":882,"x_min":6,"x_max":831,"o":"m 350 11 q 438 -7 375 4 q 533 -24 501 -18 l 504 8 q 694 126 618 32 q 696 128 694 128 q 713 150 704 139 q 778 297 756 214 q 806 426 786 328 q 831 569 825 525 l 788 536 q 700 750 767 660 q 510 885 625 851 q 460 898 486 892 q 385 915 433 904 q 301 933 338 925 l 336 890 q 126 749 206 864 q 60 597 81 683 q 57 590 58 594 q 30 463 49 565 q 6 314 11 361 l 53 353 q 140 149 75 235 q 350 11 222 39 m 408 750 q 418 750 414 750 q 581 661 519 743 q 646 447 644 575 q 589 235 649 319 q 433 151 532 151 q 258 238 324 151 q 192 451 194 322 q 249 664 189 578 q 408 750 307 749 "},"P":{"ha":743,"x_min":-4,"x_max":690,"o":"m 335 538 l 318 538 q 267 539 294 539 q 247 540 257 539 l 247 572 l 247 589 l 247 596 l 247 608 l 247 643 l 247 746 l 247 763 q 261 763 249 763 q 286 763 274 763 q 451 761 361 763 q 524 761 460 761 q 515 707 533 729 q 475 658 496 682 q 415 601 463 646 q 356 547 367 556 q 335 538 347 542 m 213 896 l 85 896 l -4 896 q 28 890 14 894 q 51 879 42 886 q 67 863 60 872 q 77 843 74 854 q 82 820 81 832 q 84 796 83 808 q 85 771 85 783 q 85 746 85 758 l 81 1 l 250 0 q 249 389 250 56 l 250 389 l 251 389 l 253 389 l 254 389 l 257 388 l 258 388 l 260 388 l 261 388 l 263 388 l 314 386 q 331 386 324 386 l 336 386 l 338 386 q 401 401 368 386 q 447 426 435 417 q 464 440 458 435 l 572 535 q 640 608 613 575 q 682 682 674 653 q 690 761 690 711 l 690 894 l 685 894 l 669 894 q 644 894 658 894 q 615 894 631 894 l 451 894 q 286 896 361 896 q 258 896 272 896 q 232 896 244 896 l 217 896 l 213 896 "},"Q":{"ha":875,"x_min":100,"x_max":822,"o":"m 719 893 l 600 893 l 560 893 q 372 876 449 892 q 235 826 294 861 q 143 730 175 790 q 104 579 111 669 q 101 510 101 556 q 101 501 101 508 l 101 499 l 101 497 l 101 496 l 101 494 l 101 493 l 101 492 l 101 490 l 101 489 l 101 488 l 101 485 l 101 483 l 101 481 q 101 461 101 471 q 101 456 101 458 l 100 453 l 100 451 l 100 443 l 100 422 l 100 360 l 100 297 l 100 276 l 100 269 l 100 267 l 101 265 q 101 260 101 263 l 101 258 l 101 257 l 101 256 l 101 254 l 101 253 l 101 251 l 101 250 l 101 249 l 101 246 l 101 244 q 103 194 103 221 l 104 144 q 106 128 106 135 q 106 122 106 124 l 107 -1 l 114 -1 l 132 0 l 186 0 l 240 1 l 258 1 l 265 1 q 331 7 300 1 q 567 114 472 28 q 713 4 643 50 l 713 -1 l 713 -3 q 761 -35 722 -8 q 822 -67 788 -53 l 821 99 l 747 157 q 657 235 728 175 q 715 444 707 329 l 715 447 q 717 457 717 453 l 715 457 q 717 460 717 458 q 717 464 717 463 q 717 504 717 482 q 718 544 718 526 q 718 558 718 553 q 718 563 718 561 l 718 564 l 718 565 l 718 572 l 718 590 q 719 615 719 601 q 719 644 719 629 q 719 673 719 660 q 719 697 719 686 l 719 715 l 719 722 l 719 729 l 719 749 l 719 808 l 719 867 l 719 886 l 719 893 m 253 507 q 262 587 254 554 q 289 650 269 619 q 342 699 308 681 q 429 727 375 717 q 560 738 483 738 l 560 729 l 560 722 l 560 715 l 560 699 q 560 673 560 686 q 560 644 560 660 q 560 615 560 629 q 560 590 560 601 l 560 572 l 560 565 l 558 564 q 558 563 558 564 q 558 549 558 557 q 557 508 558 531 l 557 500 q 557 493 557 494 q 557 489 557 492 q 529 353 549 411 q 515 368 522 360 q 518 369 517 368 q 514 374 517 371 l 511 375 l 510 376 l 508 378 l 507 379 l 506 381 l 503 382 l 472 411 l 442 440 q 431 450 435 446 l 428 453 l 322 340 q 326 336 324 339 l 329 333 l 331 333 l 332 332 l 333 331 l 335 329 l 336 326 l 339 325 l 340 324 l 342 322 l 343 321 l 344 319 l 346 318 l 347 317 l 349 315 l 350 315 l 350 314 l 351 313 l 353 313 l 354 311 l 356 310 l 357 308 l 358 307 l 360 306 l 361 304 l 364 301 l 365 300 l 368 299 l 397 271 q 444 224 421 246 q 256 150 376 167 l 254 200 q 253 249 254 226 q 253 265 253 258 q 251 272 251 271 l 251 276 l 251 297 l 251 360 l 251 422 l 251 443 l 251 450 q 253 458 251 451 q 253 478 253 474 q 253 499 253 489 q 253 507 253 506 "},"R":{"ha":976,"x_min":-4,"x_max":925,"o":"m 524 761 q 515 707 533 729 q 475 658 496 682 q 415 601 463 646 q 356 547 367 556 q 340 539 350 543 l 247 540 l 247 572 l 247 589 l 247 596 l 247 608 l 247 643 l 247 746 l 247 763 q 261 763 249 763 q 286 763 274 763 q 451 761 361 763 q 524 761 460 761 m 213 896 l 85 896 l -4 896 q 28 890 14 894 q 51 879 42 886 q 67 863 60 872 q 77 843 74 854 q 82 820 81 832 q 84 796 83 808 q 85 771 85 783 q 85 746 85 758 l 81 1 l 250 0 q 249 389 250 57 l 326 388 q 333 381 329 385 q 411 306 350 367 q 510 207 499 219 q 647 76 561 153 q 814 -56 722 8 q 864 -89 824 -62 q 925 -121 890 -106 l 924 44 l 826 121 q 795 147 815 131 q 760 178 775 164 q 732 203 744 192 q 621 310 682 247 l 599 333 q 576 357 586 347 q 529 404 550 383 q 479 453 503 431 q 572 535 554 517 q 640 608 613 575 q 682 682 674 653 q 690 761 690 711 l 690 894 l 685 894 l 669 894 q 644 894 658 894 q 615 894 631 894 l 451 894 q 286 896 361 896 q 258 896 272 896 q 232 896 244 896 l 217 896 l 213 896 "},"S":{"ha":779,"x_min":83,"x_max":726,"o":"m 83 147 l 83 1 l 92 1 l 111 1 q 143 1 126 1 q 174 1 160 1 q 204 1 188 1 q 236 1 221 1 l 256 1 l 264 1 q 331 7 303 3 q 479 51 413 19 q 589 124 546 82 q 663 219 632 167 q 708 325 693 272 q 725 433 722 378 l 726 589 l 719 589 l 700 589 q 669 589 686 589 q 629 589 651 589 q 414 589 531 589 q 331 589 356 589 q 263 590 281 589 q 309 675 276 643 q 413 724 342 707 q 601 736 485 740 l 603 892 q 435 885 504 892 q 306 860 367 879 q 206 808 244 842 q 140 723 167 775 q 101 594 113 671 q 100 579 100 589 l 100 435 l 107 435 l 126 435 q 157 435 139 435 q 197 435 175 435 q 413 435 294 435 q 564 435 531 435 q 449 228 535 294 q 229 147 364 161 q 203 147 218 147 q 174 147 189 147 q 143 147 160 147 q 111 147 126 147 l 92 147 l 83 147 "},"T":{"ha":876,"x_min":21,"x_max":825,"o":"m 21 897 l 21 749 l 31 749 l 56 749 l 147 749 q 342 749 189 749 q 342 679 342 729 q 343 404 343 554 q 343 128 343 254 q 344 38 343 75 q 344 27 344 32 q 344 19 344 22 q 344 13 344 17 l 344 3 l 506 4 l 506 13 q 506 19 506 17 q 506 27 506 22 q 506 38 506 32 q 504 129 504 75 q 504 404 504 254 q 503 681 504 554 q 503 749 503 704 q 699 749 663 749 l 790 749 l 815 749 l 825 749 l 825 897 l 815 897 l 790 897 l 699 897 q 560 897 631 897 q 422 897 489 897 q 287 897 358 897 q 147 897 215 897 l 56 897 l 31 897 l 21 897 "},"U":{"ha":781,"x_min":15,"x_max":728,"o":"m 724 896 l 578 896 l 578 886 l 578 858 q 578 724 578 854 q 579 426 578 594 q 576 407 578 418 q 514 272 568 342 q 256 140 426 161 l 256 150 l 256 253 l 256 286 l 256 299 l 256 325 l 256 392 l 256 597 l 256 801 l 256 868 l 256 894 l 96 894 l 15 893 q 49 881 35 890 q 73 851 64 871 q 87 813 82 831 q 94 763 92 796 q 96 710 96 731 q 96 652 96 690 q 96 597 96 614 l 96 392 q 96 15 96 353 l 96 1 l 256 1 q 331 7 300 1 q 579 113 481 29 l 579 86 q 579 68 579 71 l 579 -3 l 728 1 l 726 168 q 726 301 726 279 q 726 406 726 358 q 726 429 726 417 l 726 431 q 726 465 726 440 q 725 763 725 628 q 725 861 725 819 q 725 888 725 876 l 724 896 "},"V":{"ha":779,"x_min":15,"x_max":726,"o":"m 725 893 l 578 892 l 578 888 l 578 872 q 578 660 578 861 q 579 447 579 458 q 579 431 581 443 q 576 407 578 421 q 514 272 568 342 q 256 140 426 161 l 256 150 l 256 253 l 256 286 l 256 299 l 256 325 l 256 392 l 256 597 l 256 801 l 256 868 l 256 894 l 96 894 l 15 893 q 49 881 35 890 q 73 851 64 871 q 87 813 82 831 q 94 763 92 796 q 96 710 96 731 q 96 652 96 690 q 96 597 96 614 l 96 392 q 96 15 96 353 l 96 1 l 256 1 q 331 7 300 1 q 510 65 432 22 q 635 169 589 108 q 703 295 681 229 q 726 429 726 361 l 726 433 l 726 449 q 726 501 726 471 q 726 660 726 574 q 725 821 725 747 q 725 874 725 851 q 725 888 725 882 l 725 893 "},"W":{"ha":1138,"x_min":50,"x_max":1085,"o":"m 211 896 l 50 896 l 50 892 l 51 882 q 51 865 51 874 q 51 848 51 857 q 51 831 51 839 q 51 814 51 822 l 51 804 l 51 796 l 51 788 l 51 761 q 51 747 51 753 q 51 735 51 740 l 51 725 l 51 717 l 51 704 q 51 665 51 686 q 50 626 50 644 q 50 614 50 619 l 50 608 l 50 606 l 50 596 q 51 583 50 590 q 51 571 51 578 q 93 378 56 469 q 183 229 131 288 q 282 151 222 186 q 375 103 310 136 l 549 -6 l 593 57 q 600 68 597 63 l 639 121 l 638 121 q 639 186 638 154 q 708 138 667 161 q 894 44 794 89 q 901 40 899 43 q 938 22 918 32 q 969 6 958 13 q 996 -7 981 0 l 1083 124 l 1082 125 q 1083 418 1083 388 q 1083 431 1083 425 q 1083 440 1083 436 l 1083 454 l 1083 472 q 1083 496 1083 483 q 1083 522 1083 508 q 1083 574 1083 550 q 1083 590 1083 583 l 1083 597 l 1085 610 q 1085 643 1085 624 q 1085 746 1085 690 q 1085 847 1085 801 q 1085 882 1085 868 q 1085 894 1085 892 l 924 894 l 922 746 l 922 644 q 921 456 922 624 l 921 449 q 921 214 921 332 q 882 229 883 229 q 728 322 781 271 q 672 407 694 354 q 643 519 649 460 l 640 535 l 643 896 l 476 896 l 476 888 l 476 864 q 476 831 476 849 q 476 793 476 813 q 476 756 476 774 q 476 722 476 738 q 476 710 476 715 q 476 699 476 704 l 476 683 l 476 665 q 476 608 476 640 q 476 579 476 593 q 476 553 476 565 l 476 533 l 476 517 q 476 490 476 506 q 475 408 475 453 q 475 325 475 363 q 475 297 475 310 q 474 288 474 289 l 474 279 q 474 270 474 275 q 474 260 474 265 q 474 236 474 250 q 456 244 460 243 q 301 336 354 285 q 245 421 268 368 q 217 533 222 474 l 211 896 "},"X":{"ha":910,"x_min":53,"x_max":857,"o":"m 181 894 l 63 894 l 606 138 q 565 138 589 138 q 515 138 542 138 q 450 138 489 138 q 307 138 417 138 l 417 294 l 331 410 l 53 0 l 151 0 l 158 0 l 176 0 l 244 0 q 340 0 289 0 q 450 0 392 0 q 559 -1 508 0 q 654 -1 610 -1 l 722 -1 l 742 -1 l 747 -1 l 747 0 l 857 0 l 310 756 q 458 756 336 756 l 460 756 l 461 756 l 463 756 l 464 756 l 465 756 l 467 756 l 468 756 l 469 756 l 471 756 l 472 756 l 474 756 l 475 756 l 476 756 l 478 756 l 479 756 l 481 756 l 482 756 l 483 756 l 485 756 l 486 756 l 488 756 l 489 756 l 490 756 l 492 756 l 493 756 l 494 756 l 496 756 l 497 756 l 499 756 l 500 756 l 501 756 l 503 756 l 504 756 l 506 756 l 507 756 l 508 756 l 510 756 l 511 756 l 513 756 l 514 756 l 515 756 l 517 756 l 518 756 l 519 756 l 521 756 l 522 756 l 524 756 l 525 756 l 526 756 l 528 756 l 529 756 l 531 756 l 532 756 l 533 756 l 535 756 l 536 756 l 538 756 l 539 756 l 540 756 l 542 756 l 543 756 l 544 756 l 546 756 l 547 756 l 549 756 l 550 756 l 551 756 l 553 756 l 554 756 l 556 756 l 557 756 l 558 756 l 560 756 l 561 756 l 563 756 l 564 756 l 565 756 l 567 756 l 568 756 l 569 756 l 571 756 l 572 756 l 574 756 l 575 756 l 576 756 l 578 756 l 579 756 l 581 756 l 582 756 l 583 756 l 585 756 l 586 756 l 589 756 l 590 756 l 592 756 l 593 756 l 594 756 l 596 756 l 486 599 l 574 483 l 850 894 q 736 893 793 894 l 736 894 l 731 894 l 713 894 q 682 894 699 894 q 650 894 665 894 q 560 894 608 894 q 458 894 513 894 q 356 894 404 894 q 267 894 308 894 q 234 894 250 894 q 204 894 218 894 l 186 894 l 181 894 "},"Y":{"ha":996,"x_min":-78,"x_max":944,"o":"m 739 897 l 490 574 l 225 896 l 11 896 l 379 429 l -78 -167 l 138 -167 l 944 896 l 739 897 "},"Z":{"ha":906,"x_min":46,"x_max":854,"o":"m 669 894 l 668 894 q 650 894 660 894 q 458 894 563 894 q 267 894 354 894 q 239 894 253 894 q 217 894 225 894 l 217 896 l 65 896 l 331 519 l 400 628 l 313 756 q 458 756 321 756 l 460 756 l 461 756 l 463 756 l 464 756 l 465 756 l 467 756 l 468 756 l 469 756 l 471 756 l 472 756 l 474 756 l 475 756 l 476 756 l 478 756 l 479 756 l 481 756 l 482 756 l 483 756 l 485 756 l 486 756 l 488 756 l 489 756 l 490 756 l 492 756 l 493 756 l 494 756 l 496 756 l 497 756 l 499 756 l 500 756 l 501 756 l 503 756 l 504 756 l 506 756 l 507 756 l 508 756 l 510 756 l 511 756 l 513 756 l 514 756 l 515 756 l 517 756 l 518 756 l 519 756 l 521 756 l 522 756 l 525 756 l 526 756 l 528 756 l 529 756 l 531 756 l 532 756 l 533 756 l 535 756 l 536 756 l 538 756 l 539 756 l 540 756 l 542 756 l 543 756 l 544 756 l 546 756 l 547 756 l 549 756 l 550 756 l 551 756 l 553 756 l 554 756 l 556 756 l 557 756 l 558 756 l 560 756 l 561 756 l 563 756 l 564 756 l 565 756 l 567 756 l 568 756 l 569 756 l 571 756 l 572 756 l 46 0 l 151 1 l 151 0 l 158 0 l 176 0 l 193 0 l 199 0 l 217 0 l 244 0 q 340 0 289 0 q 450 0 392 0 q 559 -1 508 0 q 654 -1 610 -1 l 661 -1 l 699 -1 l 714 -1 l 722 -1 l 724 -1 l 742 -1 l 747 -1 l 747 0 l 854 1 l 581 385 l 506 275 l 601 138 q 471 138 504 138 q 374 138 419 138 q 311 138 329 138 l 736 756 l 832 894 l 669 894 "},"[":{"ha":413,"x_min":139,"x_max":356,"o":"m 346 -304 q 288 -225 300 -300 q 290 856 289 315 q 290 888 290 871 q 290 922 290 904 q 291 956 290 939 q 294 988 292 972 q 299 1017 296 1003 q 306 1042 301 1031 q 318 1063 311 1054 q 334 1077 325 1072 q 356 1083 343 1082 l 290 1081 l 196 1081 l 143 1081 l 142 428 q 142 409 142 418 q 142 394 142 400 l 142 372 l 142 347 q 142 311 142 331 q 142 268 142 292 q 140 190 142 226 q 140 165 140 175 l 140 156 l 140 135 q 140 110 140 124 q 140 83 140 97 q 140 -73 140 13 q 140 -229 140 -158 q 140 -245 140 -239 q 140 -257 140 -251 q 140 -265 140 -262 q 139 -300 140 -287 l 140 -300 l 281 -301 q 346 -304 314 -303 "},"\\":{"ha":557,"x_min":-50,"x_max":506,"o":"m 78 1082 l -50 1081 l 379 -267 l 506 -267 l 78 1082 "},"]":{"ha":328,"x_min":53,"x_max":275,"o":"m 68 1086 q 63 1088 65 1086 q 68 1086 65 1088 m 68 1086 q 126 1007 115 1082 l 119 -76 q 119 -108 119 -85 q 119 -143 119 -132 q 117 -176 118 -154 q 115 -209 117 -197 q 110 -238 113 -221 q 102 -265 107 -256 q 90 -284 97 -274 q 74 -299 83 -294 q 53 -304 64 -303 q 118 -301 86 -303 q 213 -303 165 -303 q 267 -303 239 -303 q 271 351 271 304 l 271 386 l 271 407 l 271 433 q 272 511 271 468 q 272 590 272 554 l 272 615 l 272 625 l 272 646 q 272 697 272 667 q 274 854 274 768 q 275 1011 274 940 l 275 1031 q 275 1043 275 1039 q 275 1082 275 1067 l 133 1083 l 68 1086 "},"^":{"ha":725,"x_min":61,"x_max":674,"o":"m 414 906 l 367 989 l 61 449 l 156 449 l 414 906 m 433 879 l 388 799 l 581 449 l 674 449 l 433 879 "},"_":{"ha":743,"x_min":3,"x_max":692,"o":"m 3 -85 l 3 -182 l 10 -182 l 32 -182 q 70 -182 50 -182 q 110 -182 90 -182 q 347 -182 218 -182 q 583 -182 476 -182 q 624 -182 604 -182 q 663 -182 644 -182 l 683 -182 l 692 -182 l 692 -85 l 683 -85 l 663 -85 q 624 -85 644 -85 q 583 -85 604 -85 q 347 -85 476 -85 q 110 -85 218 -85 q 69 -85 89 -85 q 32 -85 49 -85 l 10 -85 l 3 -85 "},"`":{"ha":681,"x_min":157,"x_max":629,"o":"m 285 1082 l 157 1082 l 494 779 l 629 775 l 285 1082 "},"a":{"ha":810,"x_min":94,"x_max":758,"o":"m 597 772 q 596 757 597 767 l 596 604 l 596 603 l 596 601 l 596 600 l 596 599 l 596 597 l 596 596 l 596 594 l 596 593 l 596 592 l 596 590 l 596 589 l 596 588 l 596 586 l 596 585 l 596 583 l 596 582 l 596 581 l 596 579 l 596 578 l 596 576 l 596 575 l 596 572 l 596 571 l 594 569 l 594 568 l 594 567 l 594 565 l 594 564 l 594 563 l 594 561 l 594 560 l 594 557 l 594 556 l 594 554 l 594 553 l 594 551 l 594 550 l 594 549 l 594 546 l 594 544 l 594 543 l 594 542 l 594 540 l 594 538 l 594 536 l 594 535 l 594 533 l 594 532 l 594 529 l 594 528 l 594 526 l 594 525 l 594 522 l 594 521 l 594 519 l 594 518 l 594 515 l 594 514 l 594 513 l 594 510 l 594 508 l 594 507 l 261 468 q 333 632 275 568 q 592 769 401 706 q 597 772 594 771 m 94 1 l 256 1 l 256 6 l 256 18 l 256 63 l 256 197 l 256 307 l 593 346 q 592 142 593 250 q 592 40 592 82 q 592 11 592 24 q 590 1 590 4 l 751 0 q 751 11 751 3 q 751 39 751 22 q 753 140 751 81 q 754 448 753 281 q 757 756 756 615 q 757 857 757 815 q 758 885 758 874 q 758 893 758 889 q 758 896 758 894 q 608 896 683 896 l 625 978 q 493 915 588 963 q 357 846 399 868 q 199 733 251 790 q 116 594 136 664 q 94 394 96 524 l 94 392 l 94 389 l 94 376 l 94 332 l 94 197 l 94 63 l 94 18 l 94 6 l 94 1 "},"b":{"ha":779,"x_min":15,"x_max":726,"o":"m 256 150 l 256 253 l 256 286 l 256 299 l 256 325 l 256 392 l 256 435 l 258 435 q 282 435 268 435 q 314 435 296 435 q 482 435 390 435 q 564 435 558 435 q 457 235 536 301 q 256 150 378 168 m 256 894 l 96 894 l 15 893 q 49 881 35 890 q 73 851 64 871 q 87 813 82 831 q 94 763 92 796 q 96 710 96 731 q 96 652 96 690 q 96 597 96 614 l 96 392 q 96 15 96 353 l 96 1 l 256 1 q 331 7 300 1 q 479 51 413 19 q 589 124 546 82 q 663 219 632 167 q 708 325 693 272 q 725 433 722 378 l 726 433 l 726 589 l 721 589 l 706 589 q 682 589 696 589 q 650 589 668 589 l 647 589 l 646 589 q 704 733 676 636 l 704 735 l 706 735 l 706 893 l 700 893 l 682 893 q 651 893 668 893 q 618 893 635 893 q 424 894 529 893 q 256 894 303 894 m 256 735 q 424 735 321 735 q 544 735 500 735 q 469 625 518 657 q 354 590 421 593 q 314 590 343 590 q 306 590 310 590 q 260 593 288 590 q 256 593 258 593 l 256 597 l 256 735 "},"c":{"ha":763,"x_min":-1,"x_max":711,"o":"m 129 894 l 88 894 l -1 894 q 24 890 13 893 q 44 883 36 886 q 60 872 53 879 q 71 859 67 864 q 78 842 75 854 q 83 826 82 831 q 86 806 85 821 q 88 788 88 792 q 88 767 88 783 q 88 747 88 750 l 88 646 q 88 460 88 626 l 88 453 q 88 424 86 435 q 123 273 94 342 q 192 158 151 204 q 284 78 232 113 q 388 26 336 44 q 496 1 440 8 l 497 1 l 499 1 l 506 1 q 516 1 510 1 q 529 1 522 1 l 603 1 l 676 1 q 690 1 685 1 q 701 0 696 1 l 708 0 l 710 0 l 711 156 l 708 156 l 701 156 q 691 156 697 156 q 678 156 685 156 q 603 156 643 156 q 531 157 564 157 q 514 157 524 157 q 383 205 433 175 q 304 283 332 235 q 265 384 276 331 q 249 521 253 438 q 249 526 249 524 l 249 578 l 249 594 l 249 600 l 249 613 l 249 646 l 249 735 q 413 735 331 735 q 607 735 518 735 q 640 735 624 735 q 671 735 657 735 l 689 735 l 696 735 l 696 894 l 689 894 l 671 894 q 640 894 657 894 q 607 894 624 894 l 413 894 q 218 894 307 894 q 185 894 201 894 q 154 894 168 894 l 136 894 l 129 894 "},"d":{"ha":779,"x_min":15,"x_max":726,"o":"m 579 431 q 576 407 578 421 q 514 272 568 342 q 256 140 426 161 l 256 150 l 256 253 l 256 286 l 256 299 l 256 325 l 256 392 l 256 597 l 256 735 q 424 735 321 735 q 578 735 519 735 l 579 589 q 579 447 579 456 q 579 431 581 443 m 725 893 q 706 893 715 893 l 700 893 l 682 893 q 651 893 668 893 q 618 893 635 893 q 424 894 529 893 q 256 894 303 894 l 96 894 l 15 893 q 49 881 35 890 q 73 851 64 871 q 87 813 82 831 q 94 763 92 796 q 96 710 96 731 q 96 652 96 690 q 96 597 96 614 l 96 392 q 96 15 96 353 l 96 1 l 256 1 q 331 7 300 1 q 510 65 432 22 q 635 169 589 108 q 703 295 681 229 q 726 429 726 361 l 726 433 l 726 449 q 726 501 726 471 q 726 660 726 574 q 725 821 725 747 q 725 874 725 851 q 725 888 725 882 l 725 893 "},"e":{"ha":689,"x_min":0,"x_max":638,"o":"m 189 894 l 89 894 l 0 893 q 28 890 15 893 q 49 879 40 886 q 65 867 58 872 q 76 850 72 863 q 83 833 81 838 q 86 811 85 828 q 88 791 88 794 q 89 768 89 788 q 89 747 89 749 l 89 646 q 89 458 89 626 q 90 431 89 444 q 90 422 90 426 q 126 272 97 340 q 194 158 154 204 q 285 78 233 113 q 390 26 338 44 q 497 1 442 8 l 499 1 l 503 1 q 510 1 506 1 q 518 1 514 1 l 519 1 l 521 1 l 522 1 l 524 1 l 525 1 l 526 1 l 528 1 l 529 1 l 531 1 l 532 1 l 533 1 l 535 1 l 536 1 l 538 1 l 539 1 l 540 1 l 542 1 l 543 1 l 544 1 l 546 1 l 547 1 l 549 1 l 550 1 l 551 1 l 553 1 l 556 1 l 557 1 l 558 1 l 561 1 l 563 1 l 564 1 l 567 1 l 615 1 q 624 1 619 1 q 631 1 628 1 l 635 1 l 638 1 l 638 149 l 636 149 l 631 149 q 624 149 628 149 q 615 149 621 149 q 567 149 593 149 q 554 149 560 149 q 340 239 404 175 q 258 422 275 303 q 521 419 389 421 l 522 579 l 249 582 l 249 593 l 249 600 l 249 613 l 249 646 l 249 747 l 249 763 l 258 763 q 335 763 296 763 q 410 763 375 763 q 486 763 447 763 q 563 763 525 763 l 613 763 l 626 763 l 632 763 l 632 894 l 626 894 l 613 894 l 563 894 q 486 894 525 894 q 410 894 447 894 q 335 894 375 894 q 258 894 296 894 l 208 894 l 194 894 l 189 894 "},"f":{"ha":683,"x_min":15,"x_max":632,"o":"m 194 894 l 189 894 l 96 894 l 15 893 q 49 881 35 890 q 73 851 64 871 q 87 813 82 831 q 94 763 92 796 q 96 710 96 731 q 96 652 96 690 q 96 597 96 614 l 96 392 q 96 15 96 353 l 96 1 l 256 1 q 256 150 256 94 l 256 253 l 256 286 l 256 299 l 256 325 l 256 392 l 256 422 q 521 419 388 421 l 522 579 q 256 582 389 581 l 256 597 l 256 763 l 258 763 q 335 763 296 763 q 410 763 375 763 q 486 763 447 763 q 563 763 525 763 l 613 763 l 626 763 l 632 763 l 632 894 l 626 894 l 613 894 l 563 894 q 486 894 525 894 q 410 894 447 894 l 258 894 l 256 894 l 208 894 l 194 894 "},"g":{"ha":779,"x_min":15,"x_max":726,"o":"m 407 590 l 407 435 l 410 435 l 419 435 q 435 435 426 435 q 457 435 444 435 l 564 435 q 457 235 536 301 q 256 150 378 168 l 256 253 l 256 286 l 256 299 l 256 325 l 256 392 l 256 597 l 256 735 q 424 735 321 735 q 618 735 529 735 q 651 735 635 735 q 682 735 667 735 l 700 735 l 706 735 l 706 893 l 700 893 l 682 893 q 651 893 668 893 q 618 893 635 893 q 424 894 529 893 q 256 894 303 894 l 96 894 l 15 893 q 49 881 35 890 q 73 851 64 871 q 87 813 82 831 q 94 763 92 796 q 96 710 96 731 q 96 652 96 690 q 96 597 96 614 l 96 392 q 96 15 96 353 l 96 1 l 256 1 q 331 7 300 1 q 479 51 413 19 q 589 124 546 82 q 663 219 632 167 q 708 325 693 272 q 725 433 722 378 l 726 433 l 726 589 l 724 589 l 713 589 q 698 589 707 589 q 676 589 689 589 q 567 589 626 589 q 457 590 507 589 q 437 590 446 590 q 421 590 428 590 l 411 590 l 407 590 "},"h":{"ha":872,"x_min":-1,"x_max":819,"o":"m 819 896 l 660 896 l 660 885 l 660 857 q 660 808 660 835 q 660 756 660 782 q 660 515 660 667 l 247 560 l 247 571 l 247 588 l 247 594 l 247 607 l 247 642 l 247 744 l 247 847 l 247 882 l 247 894 l 85 894 l -1 894 q 29 889 15 893 q 52 878 43 885 q 68 862 61 871 q 78 842 75 853 q 83 819 81 831 q 85 794 85 807 q 85 769 85 782 q 85 744 86 757 l 82 0 l 250 0 q 249 407 250 110 l 660 363 q 658 136 660 271 q 658 35 658 76 q 659 -71 658 25 q 660 -171 660 -167 q 667 -168 660 -172 q 685 -156 674 -164 q 710 -137 696 -149 q 741 -111 725 -126 q 772 -79 757 -96 q 799 -40 786 -62 q 819 6 811 -18 q 819 85 819 39 q 819 258 819 132 q 819 446 819 385 l 819 754 q 819 808 819 782 q 819 857 819 833 l 819 885 l 819 896 "},"i":{"ha":301,"x_min":-1,"x_max":249,"o":"m 247 894 l 85 894 l -1 894 q 29 890 15 894 q 52 878 43 885 q 68 862 61 871 q 78 842 75 853 q 83 820 81 832 q 85 796 85 808 q 85 771 85 783 q 85 746 86 758 l 85 643 q 85 456 85 624 l 85 449 l 86 133 l 175 63 l 249 -3 q 247 419 249 293 q 247 442 247 432 l 247 456 l 247 472 l 247 524 l 247 574 l 247 590 l 247 597 l 247 610 l 247 643 l 247 746 l 247 849 l 247 882 l 247 894 "},"j":{"ha":708,"x_min":4,"x_max":657,"o":"m 181 894 l 179 764 l 185 764 l 196 764 q 217 764 206 764 q 240 764 228 764 q 372 764 300 764 q 433 764 428 764 l 433 736 l 433 628 l 433 592 l 433 578 l 433 571 l 433 554 l 433 499 q 433 422 433 471 q 431 408 432 415 q 369 272 422 342 q 104 140 279 158 l 101 140 q 83 140 93 140 q 63 140 74 140 q 41 140 51 140 q 22 140 31 140 l 10 140 l 6 140 l 4 3 l 10 3 l 22 3 q 40 3 31 3 q 61 3 50 3 q 82 3 72 3 q 101 3 92 3 l 110 3 l 114 3 l 118 3 q 186 7 157 3 q 366 65 288 22 q 490 165 444 107 q 558 288 535 224 q 582 419 581 353 l 582 426 l 582 628 l 582 736 q 582 771 582 744 q 583 808 582 797 q 587 838 583 818 q 598 866 590 857 q 621 883 606 875 q 657 894 636 892 l 582 894 l 433 894 q 372 894 396 894 q 240 894 300 894 q 217 894 229 894 q 196 894 206 894 l 185 894 l 181 894 "},"k":{"ha":976,"x_min":-4,"x_max":925,"o":"m 247 896 l 85 896 l -4 896 q 28 890 14 894 q 51 879 42 886 q 67 863 60 872 q 77 843 74 854 q 82 820 81 832 q 84 796 83 808 q 85 771 85 783 q 85 746 85 758 l 81 1 l 250 0 q 249 389 250 57 l 251 389 l 253 389 l 254 389 l 256 389 l 257 389 l 258 389 l 260 389 l 261 389 l 264 389 l 265 389 l 267 389 l 268 389 l 269 389 l 271 389 l 274 389 l 275 389 l 276 389 l 278 389 l 279 389 l 281 389 l 283 389 l 285 389 l 286 389 l 289 389 l 290 389 l 292 388 l 294 388 l 296 388 l 299 388 l 300 388 l 301 388 q 309 388 304 388 q 315 388 314 388 q 322 388 317 388 l 326 388 q 333 381 329 385 q 411 306 350 367 q 510 207 499 219 q 647 76 561 153 q 814 -56 722 8 q 864 -89 824 -62 q 925 -121 890 -106 l 924 44 l 826 121 q 795 147 815 131 q 760 178 775 164 q 732 203 744 192 q 621 310 682 247 l 599 333 q 576 357 586 347 q 529 404 550 383 q 451 479 488 446 l 704 899 l 538 899 l 311 539 q 306 539 310 539 q 247 540 278 540 l 247 572 l 247 589 l 247 596 l 247 608 l 247 643 l 247 746 l 247 849 l 247 882 l 247 896 "},"l":{"ha":575,"x_min":15,"x_max":522,"o":"m 256 894 l 96 894 l 15 893 q 49 881 35 890 q 73 851 64 871 q 87 813 82 831 q 94 763 92 796 q 96 710 96 731 q 96 652 96 690 q 96 597 96 614 l 96 392 q 96 15 96 353 l 96 1 l 157 1 l 161 1 l 174 1 q 193 1 182 1 q 214 1 204 1 l 217 1 l 218 1 l 219 1 l 221 1 l 222 1 l 224 1 l 225 1 l 226 1 l 228 1 l 229 1 l 231 1 l 232 1 l 233 1 l 235 1 l 236 1 l 238 1 l 239 1 l 240 1 l 242 1 l 243 1 l 244 1 l 246 1 l 247 1 l 249 1 l 250 1 l 251 1 l 253 1 l 254 1 l 256 1 l 257 1 l 258 1 l 260 1 l 261 1 l 263 1 l 264 1 l 265 1 l 267 1 l 268 1 l 269 1 l 271 1 l 272 1 l 274 1 l 275 1 l 276 1 l 278 1 l 279 1 l 281 1 l 282 1 l 283 1 l 285 1 l 286 1 l 288 1 l 289 1 l 290 1 l 292 1 l 293 1 l 294 1 l 296 1 l 297 1 l 299 1 l 300 1 l 301 1 l 303 1 l 304 1 l 307 1 l 308 1 l 310 1 l 311 1 l 314 1 l 315 1 l 317 1 l 319 1 l 321 1 l 322 1 l 325 1 l 326 1 l 329 1 l 331 1 l 333 1 l 336 1 l 338 1 l 340 1 l 465 1 q 487 1 476 1 q 507 1 497 1 l 518 1 l 522 1 l 522 160 l 518 160 l 507 160 q 487 160 497 160 q 465 160 476 160 q 340 161 408 160 q 256 161 283 161 l 256 253 l 256 286 l 256 299 l 256 325 l 256 392 l 256 597 l 256 801 l 256 868 l 256 894 "},"m":{"ha":988,"x_min":24,"x_max":936,"o":"m 392 301 l 565 300 l 565 304 l 565 314 q 566 328 565 321 q 567 341 567 335 q 567 355 567 347 q 567 368 567 363 l 567 378 l 567 382 l 565 382 q 588 533 571 474 q 644 635 606 593 q 739 710 683 678 q 736 440 738 608 q 733 139 735 276 q 733 40 733 82 q 732 13 733 24 q 732 3 732 4 l 893 1 q 893 11 893 3 q 893 39 893 22 q 894 138 893 81 q 896 439 894 275 q 899 740 897 603 q 900 839 900 799 q 900 867 900 856 q 900 874 900 871 l 900 876 l 936 982 q 803 919 897 965 q 667 850 708 872 q 510 736 563 794 q 476 696 490 715 q 447 729 464 713 q 290 843 396 788 q 155 912 249 865 q 24 975 61 958 l 58 871 l 58 868 q 58 840 58 857 q 57 742 57 800 l 54 440 q 51 139 53 275 q 51 40 51 82 q 50 13 51 24 q 50 3 50 4 l 211 1 q 211 11 211 3 q 211 39 211 22 q 213 138 211 81 q 214 439 213 275 q 217 704 215 592 q 314 628 274 672 q 370 522 353 585 q 393 357 388 458 q 393 341 393 347 q 392 328 393 335 q 392 314 392 321 l 392 304 l 392 301 "},"n":{"ha":713,"x_min":53,"x_max":660,"o":"m 54 0 l 215 0 l 215 147 q 215 249 215 217 q 215 436 215 268 l 215 442 l 214 675 q 253 660 251 661 q 407 569 354 619 q 463 485 440 538 q 492 374 485 432 l 493 358 q 493 0 493 179 l 658 1 l 658 10 q 658 33 658 19 q 658 102 658 64 q 657 172 657 140 q 657 196 657 186 l 657 211 l 657 229 q 657 258 657 243 q 657 285 657 272 q 657 313 657 299 q 657 342 657 328 l 657 360 l 657 376 q 657 390 657 383 q 657 404 657 397 q 657 442 657 421 q 657 485 657 463 q 657 528 657 508 q 657 567 657 549 q 657 581 657 574 q 657 594 657 588 l 657 604 l 657 611 l 657 631 q 657 659 657 644 q 657 690 657 674 q 657 706 657 699 q 660 828 657 750 l 582 894 l 494 768 l 494 703 q 424 751 465 728 q 239 843 339 800 q 232 847 236 844 q 197 865 217 856 q 164 881 176 874 q 139 894 154 886 l 53 763 l 54 763 q 54 471 53 501 q 54 449 54 458 l 54 435 l 54 418 q 54 393 54 406 q 54 368 54 381 q 54 343 54 356 q 54 318 54 331 l 54 301 l 54 294 l 54 282 q 54 267 54 275 q 54 249 54 258 q 54 147 54 203 q 54 46 54 92 l 54 13 l 54 0 "},"o":{"ha":882,"x_min":6,"x_max":831,"o":"m 350 11 q 438 -7 375 4 q 533 -24 501 -18 l 504 8 q 694 126 618 32 q 696 128 694 128 q 713 150 704 139 q 778 297 756 214 q 806 426 786 328 q 831 569 825 525 l 788 536 q 700 750 767 660 q 510 885 625 851 q 460 898 486 892 q 385 915 433 904 q 301 933 338 925 l 336 890 q 126 749 206 864 q 60 597 81 683 q 57 590 58 594 q 30 463 49 565 q 6 314 11 361 l 53 353 q 140 149 75 235 q 350 11 222 39 m 408 750 q 418 750 414 750 q 581 661 519 743 q 646 447 644 575 q 589 235 649 319 q 433 151 532 151 q 258 238 324 151 q 192 451 194 322 q 249 664 189 578 q 408 750 307 749 "},"p":{"ha":743,"x_min":-4,"x_max":690,"o":"m 335 538 l 318 538 q 267 539 294 539 q 247 540 257 539 l 247 572 l 247 589 l 247 596 l 247 608 l 247 643 l 247 746 l 247 763 q 261 763 249 763 q 286 763 274 763 q 451 761 361 763 q 524 761 460 761 q 515 707 533 729 q 475 658 496 682 q 415 601 463 646 q 356 547 367 556 q 335 538 347 542 m 213 896 l 85 896 l -4 896 q 28 890 14 894 q 51 879 42 886 q 67 863 60 872 q 77 843 74 854 q 82 820 81 832 q 84 796 83 808 q 85 771 85 783 q 85 746 85 758 l 81 1 l 250 0 q 249 389 250 56 l 250 389 l 251 389 l 253 389 l 254 389 l 257 388 l 258 388 l 260 388 l 261 388 l 263 388 l 314 386 q 331 386 324 386 l 336 386 l 338 386 q 401 401 368 386 q 447 426 435 417 q 464 440 458 435 l 572 535 q 640 608 613 575 q 682 682 674 653 q 690 761 690 711 l 690 894 l 685 894 l 669 894 q 644 894 658 894 q 615 894 631 894 l 451 894 q 286 896 361 896 q 258 896 272 896 q 232 896 244 896 l 217 896 l 213 896 "},"q":{"ha":911,"x_min":100,"x_max":858,"o":"m 261 497 q 267 570 263 542 q 281 629 271 599 q 311 677 292 660 q 363 710 331 694 q 443 731 394 725 q 560 738 492 738 l 560 729 l 560 715 l 560 699 q 559 673 560 686 q 558 644 558 660 q 558 615 558 629 q 558 590 558 601 l 558 572 l 558 563 l 558 549 q 558 508 558 531 q 557 468 557 486 q 553 414 556 460 l 550 385 l 549 386 q 546 389 547 388 l 542 393 q 540 394 540 393 l 539 396 l 538 397 l 536 399 l 535 400 l 533 401 l 532 403 l 531 403 l 529 404 l 529 406 l 528 407 l 526 408 l 525 408 l 524 410 l 524 411 l 522 411 l 521 413 l 519 414 l 519 415 l 518 415 l 517 417 l 517 418 l 515 418 l 514 419 l 513 421 l 513 422 l 511 422 l 510 424 l 508 425 l 507 426 l 506 428 l 504 429 l 503 431 l 500 433 l 499 435 q 485 447 490 442 q 479 453 481 451 l 372 342 q 378 336 374 340 q 392 324 383 331 l 433 283 l 472 244 q 264 151 400 172 q 263 190 264 172 q 261 239 263 217 q 261 256 261 249 q 260 261 260 258 l 260 263 l 260 267 l 260 288 l 260 350 l 260 413 l 260 433 l 260 439 q 260 442 260 440 q 260 449 260 444 q 261 458 261 453 q 261 468 261 463 q 261 488 261 479 q 261 497 261 496 m 714 893 l 600 893 l 560 893 q 372 876 449 892 q 235 826 294 861 q 143 730 175 790 q 104 579 111 669 q 101 546 101 560 q 102 520 101 532 q 101 501 103 508 q 101 492 101 499 q 101 472 101 483 q 101 453 101 461 q 100 446 100 449 l 100 443 l 100 442 l 100 433 l 100 413 l 100 350 l 100 288 l 100 267 l 100 260 l 100 256 l 100 254 q 101 250 101 253 q 101 233 101 243 l 103 183 q 106 133 104 157 q 106 127 106 129 q 106 122 106 125 q 106 118 106 119 q 107 -1 107 58 l 114 -1 l 132 0 l 186 0 l 240 1 l 258 1 l 265 1 q 331 7 300 1 q 590 139 493 31 q 749 19 669 72 q 750 18 749 18 q 763 10 757 14 l 764 8 q 797 -14 776 0 q 858 -46 824 -31 l 857 119 l 738 214 q 671 269 672 268 q 711 444 704 350 l 711 450 l 711 464 q 713 504 713 482 q 714 544 713 526 q 714 558 714 553 l 714 564 l 714 565 l 714 572 l 714 590 q 714 615 714 601 q 714 644 714 629 q 714 673 714 660 q 714 697 714 686 l 714 715 l 714 722 l 714 729 l 714 749 l 714 808 l 714 867 l 714 886 l 714 893 "},"r":{"ha":976,"x_min":-4,"x_max":925,"o":"m 524 761 q 515 707 533 729 q 475 658 496 682 q 415 601 463 646 q 356 547 367 556 q 340 539 350 543 l 247 540 l 247 572 l 247 589 l 247 596 l 247 608 l 247 643 l 247 746 l 247 763 q 261 763 249 763 q 286 763 274 763 q 451 761 361 763 q 524 761 460 761 m 213 896 l 85 896 l -4 896 q 28 890 14 894 q 51 879 42 886 q 67 863 60 872 q 77 843 74 854 q 82 820 81 832 q 84 796 83 808 q 85 771 85 783 q 85 746 85 758 l 81 1 l 250 0 q 249 389 250 57 l 326 388 q 333 381 329 385 q 411 306 350 367 q 510 207 499 219 q 647 76 561 153 q 814 -56 722 8 q 864 -89 824 -62 q 925 -121 890 -106 l 924 44 l 826 121 q 795 147 815 131 q 760 178 775 164 q 732 203 744 192 q 621 310 682 247 l 599 333 q 576 357 586 347 q 529 404 550 383 q 479 453 503 431 q 572 535 554 517 q 640 608 613 575 q 682 682 674 653 q 690 761 690 711 l 690 894 l 685 894 l 669 894 q 644 894 658 894 q 615 894 631 894 l 451 894 q 286 896 361 896 q 258 896 272 896 q 232 896 244 896 l 217 896 l 213 896 "},"s":{"ha":779,"x_min":83,"x_max":726,"o":"m 83 147 l 83 1 l 92 1 l 111 1 q 143 1 126 1 q 174 1 160 1 q 204 1 188 1 q 236 1 221 1 l 256 1 l 264 1 q 331 7 303 3 q 479 51 413 19 q 589 124 546 82 q 663 219 632 167 q 708 325 693 272 q 725 433 722 378 l 726 589 l 719 589 l 700 589 q 669 589 686 589 q 629 589 651 589 q 414 589 531 589 q 331 589 356 589 q 263 590 281 589 q 309 675 276 643 q 413 724 342 707 q 601 736 485 740 l 603 892 q 435 885 504 892 q 306 860 367 879 q 206 808 244 842 q 140 723 167 775 q 101 594 113 671 q 100 579 100 589 l 100 435 l 107 435 l 126 435 q 157 435 139 435 q 197 435 175 435 q 413 435 294 435 q 564 435 531 435 q 449 228 535 294 q 229 147 364 161 q 203 147 218 147 q 174 147 189 147 q 143 147 160 147 q 111 147 126 147 l 92 147 l 83 147 "},"t":{"ha":940,"x_min":85,"x_max":889,"o":"m 85 894 l 85 746 l 94 746 l 119 746 l 211 746 q 406 746 253 746 q 406 676 406 742 q 407 401 407 551 q 407 125 407 251 q 408 35 407 72 q 408 24 408 29 q 408 17 408 19 q 408 10 408 14 l 408 0 l 569 1 l 569 10 q 569 17 569 14 q 569 24 569 19 q 569 35 569 29 q 568 126 568 72 q 568 401 568 251 q 567 678 568 551 q 567 746 567 701 q 763 746 726 746 l 854 746 l 879 746 l 889 746 l 889 894 l 879 894 l 854 894 l 763 894 q 624 894 694 894 q 486 894 553 894 q 351 894 422 894 q 211 894 279 894 l 119 894 l 94 894 l 85 894 "},"u":{"ha":781,"x_min":15,"x_max":728,"o":"m 725 893 l 578 892 l 578 882 l 578 854 q 579 426 578 851 q 576 407 578 418 q 514 272 568 342 q 256 140 426 161 l 256 150 l 256 253 l 256 286 l 256 299 l 256 325 l 256 392 l 256 597 l 256 801 l 256 868 l 256 894 l 96 894 l 15 893 q 49 881 35 890 q 73 851 64 871 q 87 813 82 831 q 94 763 92 796 q 96 710 96 731 q 96 652 96 690 q 96 597 96 614 l 96 392 q 96 15 96 353 l 96 1 l 256 1 q 331 7 300 1 q 579 113 481 29 q 579 78 579 85 q 579 68 579 69 l 579 -3 l 728 1 q 726 167 726 110 q 726 286 726 222 q 726 406 726 350 q 726 429 726 417 l 726 431 q 726 463 726 440 q 725 758 725 624 q 725 856 725 815 q 725 883 725 872 l 725 893 "},"v":{"ha":779,"x_min":15,"x_max":726,"o":"m 725 893 l 578 892 l 578 888 l 578 872 q 578 660 578 861 q 579 447 579 458 q 579 431 581 443 q 576 407 578 421 q 514 272 568 342 q 256 140 426 161 l 256 150 l 256 253 l 256 286 l 256 299 l 256 325 l 256 392 l 256 597 l 256 801 l 256 868 l 256 894 l 96 894 l 15 893 q 49 881 35 890 q 73 851 64 871 q 87 813 82 831 q 94 763 92 796 q 96 710 96 731 q 96 652 96 690 q 96 597 96 614 l 96 392 q 96 15 96 353 l 96 1 l 256 1 q 331 7 300 1 q 510 65 432 22 q 635 169 589 108 q 703 295 681 229 q 726 429 726 361 l 726 433 l 726 449 q 726 501 726 471 q 726 660 726 574 q 725 821 725 747 q 725 874 725 851 q 725 888 725 882 l 725 893 "},"w":{"ha":1138,"x_min":50,"x_max":1085,"o":"m 211 896 l 50 896 l 50 892 l 51 882 q 51 865 51 874 q 51 848 51 857 q 51 831 51 839 q 51 814 51 822 l 51 804 l 51 796 l 51 788 l 51 761 q 51 747 51 753 q 51 735 51 740 l 51 725 l 51 717 l 51 704 q 51 665 51 686 q 50 626 50 644 q 50 614 50 619 l 50 608 l 50 606 l 50 596 q 51 583 50 590 q 51 571 51 578 q 93 378 56 469 q 183 229 131 288 q 282 151 222 186 q 375 103 310 136 l 549 -6 l 593 57 q 600 68 597 63 l 639 121 l 638 121 q 639 186 638 154 q 708 138 667 161 q 894 44 794 89 q 901 40 899 43 q 938 22 918 32 q 969 6 958 13 q 996 -7 981 0 l 1083 124 l 1082 125 q 1083 418 1083 388 q 1083 431 1083 425 q 1083 440 1083 436 l 1083 454 l 1083 472 q 1083 496 1083 483 q 1083 522 1083 508 q 1083 574 1083 550 q 1083 590 1083 583 l 1083 597 l 1085 610 q 1085 643 1085 624 q 1085 746 1085 690 q 1085 847 1085 801 q 1085 882 1085 868 q 1085 894 1085 892 l 924 894 l 922 746 l 922 644 q 921 456 922 624 l 921 449 q 921 214 921 332 q 882 229 883 229 q 728 322 781 271 q 672 407 694 354 q 643 519 649 460 l 640 535 l 643 896 l 476 896 l 476 888 l 476 864 q 476 831 476 849 q 476 793 476 813 q 476 756 476 774 q 476 722 476 738 q 476 710 476 715 q 476 699 476 704 l 476 683 l 476 665 q 476 608 476 640 q 476 579 476 593 q 476 553 476 565 l 476 533 l 476 517 q 476 490 476 506 q 475 408 475 453 q 475 325 475 363 q 475 297 475 310 q 474 288 474 289 l 474 279 q 474 270 474 275 q 474 260 474 265 q 474 236 474 250 q 456 244 460 243 q 301 336 354 285 q 245 421 268 368 q 217 533 222 474 l 211 896 "},"x":{"ha":910,"x_min":53,"x_max":857,"o":"m 181 894 l 63 894 l 606 138 q 565 138 589 138 q 515 138 542 138 q 450 138 489 138 q 307 138 417 138 l 417 294 l 331 410 l 53 0 l 151 0 l 158 0 l 176 0 l 244 0 q 340 0 289 0 q 450 0 392 0 q 559 -1 508 0 q 654 -1 610 -1 l 722 -1 l 742 -1 l 747 -1 l 747 0 l 857 0 l 310 756 q 458 756 336 756 l 460 756 l 461 756 l 463 756 l 464 756 l 465 756 l 467 756 l 468 756 l 469 756 l 471 756 l 472 756 l 474 756 l 475 756 l 476 756 l 478 756 l 479 756 l 481 756 l 482 756 l 483 756 l 485 756 l 486 756 l 488 756 l 489 756 l 490 756 l 492 756 l 493 756 l 494 756 l 496 756 l 497 756 l 499 756 l 500 756 l 501 756 l 503 756 l 504 756 l 506 756 l 507 756 l 508 756 l 510 756 l 511 756 l 513 756 l 514 756 l 515 756 l 517 756 l 518 756 l 519 756 l 521 756 l 522 756 l 524 756 l 525 756 l 526 756 l 528 756 l 529 756 l 531 756 l 532 756 l 533 756 l 535 756 l 536 756 l 538 756 l 539 756 l 540 756 l 542 756 l 543 756 l 544 756 l 546 756 l 547 756 l 549 756 l 550 756 l 551 756 l 553 756 l 554 756 l 556 756 l 557 756 l 558 756 l 560 756 l 561 756 l 563 756 l 564 756 l 565 756 l 567 756 l 568 756 l 569 756 l 571 756 l 572 756 l 574 756 l 575 756 l 576 756 l 578 756 l 579 756 l 581 756 l 582 756 l 583 756 l 585 756 l 586 756 l 589 756 l 590 756 l 592 756 l 593 756 l 594 756 l 596 756 l 486 599 l 574 483 l 850 894 q 736 893 793 894 l 736 894 l 731 894 l 713 894 q 682 894 699 894 q 650 894 665 894 q 560 894 608 894 q 458 894 513 894 q 356 894 404 894 q 267 894 308 894 q 234 894 250 894 q 204 894 218 894 l 186 894 l 181 894 "},"y":{"ha":996,"x_min":-78,"x_max":944,"o":"m 739 897 l 490 574 l 225 896 l 11 896 l 379 429 l -78 -167 l 138 -167 l 944 896 l 739 897 "},"z":{"ha":906,"x_min":46,"x_max":854,"o":"m 669 894 l 668 894 q 650 894 660 894 q 458 894 563 894 q 267 894 354 894 q 239 894 253 894 q 217 894 225 894 l 217 896 l 65 896 l 331 519 l 400 628 l 313 756 q 458 756 321 756 l 460 756 l 461 756 l 463 756 l 464 756 l 465 756 l 467 756 l 468 756 l 469 756 l 471 756 l 472 756 l 474 756 l 475 756 l 476 756 l 478 756 l 479 756 l 481 756 l 482 756 l 483 756 l 485 756 l 486 756 l 488 756 l 489 756 l 490 756 l 492 756 l 493 756 l 494 756 l 496 756 l 497 756 l 499 756 l 500 756 l 501 756 l 503 756 l 504 756 l 506 756 l 507 756 l 508 756 l 510 756 l 511 756 l 513 756 l 514 756 l 515 756 l 517 756 l 518 756 l 519 756 l 521 756 l 522 756 l 525 756 l 526 756 l 528 756 l 529 756 l 531 756 l 532 756 l 533 756 l 535 756 l 536 756 l 538 756 l 539 756 l 540 756 l 542 756 l 543 756 l 544 756 l 546 756 l 547 756 l 549 756 l 550 756 l 551 756 l 553 756 l 554 756 l 556 756 l 557 756 l 558 756 l 560 756 l 561 756 l 563 756 l 564 756 l 565 756 l 567 756 l 568 756 l 569 756 l 571 756 l 572 756 l 46 0 l 151 1 l 151 0 l 158 0 l 176 0 l 193 0 l 199 0 l 217 0 l 244 0 q 340 0 289 0 q 450 0 392 0 q 559 -1 508 0 q 654 -1 610 -1 l 661 -1 l 699 -1 l 714 -1 l 722 -1 l 724 -1 l 742 -1 l 747 -1 l 747 0 l 854 1 l 581 385 l 506 275 l 601 138 q 471 138 504 138 q 374 138 419 138 q 311 138 329 138 l 736 756 l 832 894 l 669 894 "},"{":{"ha":1150,"x_min":71,"x_max":1097,"o":"m 290 410 l 229 292 l 71 0 l 231 0 l 231 1 l 936 0 q 946 0 942 0 l 1001 0 l 1001 1 l 1097 1 l 578 949 q 568 932 572 940 l 551 899 l 499 801 l 326 478 l 469 474 l 574 663 l 858 142 q 308 144 583 143 l 382 282 q 703 281 542 282 l 629 411 l 290 410 "},"|":{"ha":297,"x_min":124,"x_max":244,"o":"m 243 1058 l 124 1058 l 124 1054 l 124 1043 q 124 1022 124 1033 q 124 1000 124 1011 q 124 846 124 936 q 124 381 124 635 q 125 -85 125 126 q 125 -239 125 -175 q 125 -261 125 -250 q 125 -282 125 -272 l 125 -293 l 125 -297 l 244 -297 l 244 -293 l 244 -282 q 244 -261 244 -272 q 244 -239 244 -250 q 244 -85 244 -175 q 244 381 244 126 q 243 847 243 635 q 243 1000 243 936 q 243 1023 243 1013 q 243 1043 243 1033 l 243 1054 l 243 1058 "},"}":{"ha":1167,"x_min":82,"x_max":1114,"o":"m 892 540 l 954 660 l 1114 953 l 953 953 l 953 951 l 244 954 q 233 954 239 954 q 179 956 206 956 l 179 954 q 82 954 131 954 l 601 0 q 610 17 606 8 l 628 50 l 681 149 l 856 472 l 711 476 l 606 288 l 321 813 l 875 807 l 800 669 q 478 672 639 671 l 551 542 l 892 540 "},"~":{"ha":699,"x_min":60,"x_max":647,"o":"m 647 608 l 568 611 q 568 606 568 610 q 568 594 568 601 q 568 578 568 586 q 568 560 568 569 q 567 542 567 550 q 521 415 560 464 q 400 351 482 367 q 399 435 399 410 q 396 551 397 499 q 394 589 396 574 q 394 600 394 596 l 389 604 l 311 603 l 311 601 q 271 603 283 604 q 165 578 206 596 q 101 524 124 560 q 70 447 79 489 q 60 338 61 404 l 165 336 q 174 428 165 392 q 203 483 183 464 q 249 510 224 503 q 313 521 274 518 q 315 433 314 499 q 317 318 315 371 q 318 281 318 296 q 318 269 318 274 l 318 265 q 399 267 358 267 q 400 265 400 267 q 476 278 440 267 q 547 313 513 290 q 607 377 582 336 q 642 472 632 418 q 646 514 644 489 q 644 517 646 515 q 646 522 644 519 q 646 557 646 538 q 647 593 646 576 q 647 604 647 600 l 647 608 "},"":{"ha":239,"x_min":60,"x_max":188,"o":"m 185 889 l 188 892 q 175 890 188 894 q 89 835 119 869 q 60 654 17 747 q 69 638 63 644 q 104 616 82 619 q 144 626 126 613 q 166 661 163 639 q 156 701 169 683 q 114 724 140 722 q 185 889 94 813 "},"":{"ha":329,"x_min":132,"x_max":258,"o":"m 135 621 q 132 618 132 619 q 144 619 132 615 q 229 675 200 640 q 258 860 304 764 q 251 872 256 867 q 215 895 238 892 q 175 885 193 899 q 153 850 157 872 q 164 808 150 828 q 206 786 179 788 q 135 621 225 697 "},"":{"ha":511,"x_min":60,"x_max":460,"o":"m 185 889 l 188 892 q 175 890 188 894 q 89 835 119 869 q 60 654 17 747 q 69 638 63 644 q 104 616 82 619 q 144 626 126 613 q 166 661 163 639 q 156 701 169 683 q 114 724 140 722 q 185 889 94 813 m 457 889 q 460 893 460 892 q 447 890 460 894 q 361 835 392 869 q 335 650 288 746 q 342 636 338 643 q 378 615 356 618 q 418 626 400 613 q 440 661 436 639 q 429 701 443 683 q 386 724 414 722 q 457 889 367 813 "},"":{"ha":590,"x_min":126,"x_max":521,"o":"m 399 624 q 397 621 396 622 q 408 622 397 618 q 493 679 464 643 q 521 860 565 768 q 513 876 518 869 q 476 898 499 894 q 436 888 454 901 q 415 851 418 874 q 426 811 413 829 q 468 790 442 790 q 399 624 488 701 m 129 621 q 126 617 126 618 q 138 619 128 615 q 224 676 194 639 q 243 874 301 771 l 236 876 q 201 894 222 892 q 163 883 179 897 q 141 849 144 871 q 151 808 138 826 q 199 786 169 785 q 129 621 218 697 "},"":{"ha":1389,"x_min":0,"x_max":0,"o":""},"":{"ha":417,"x_min":0,"x_max":0,"o":""}}}
